<svg width="141" height="55" xmlns="http://www.w3.org/2000/svg">
<path d="M72.6 26.2c-4.7 0-7.5-2.6-7.5-7.7v-10h3.8v9.9c0 2.8 1.4 4.3 3.8 4.3 2.3 0 3.7-1.4 3.7-4.2v-10h3.9v9.8c0 5.3-3 8-7.7 8M95.5 26.2l-8.8-11.3v11.3h-3.9V8.5h3.7l8.4 10.9V8.5h4v17.7h-3.4M21 46.5h-3.5l-4-11.5-4 11.5H6.1L0 28.8h4.2l3.7 11.9 4-11.9h3.4l3.9 11.9 3.7-11.9H27l-6 17.7M40.8 37.7c0-3-2.2-5.4-5.3-5.4a5.2 5.2 0 0 0-5.3 5.3c0 3 2.2 5.5 5.3 5.5 3.1 0 5.3-2.5 5.3-5.4Zm-5.3 8.8c-5.4 0-9.3-4-9.3-8.8a9 9 0 0 1 9.3-9c5.4 0 9.3 4 9.3 8.9a9 9 0 0 1-9.3 9ZM60.3 46.5V34.9l-5 7.6h-.1L50.3 35v11.5h-3.8V28.8h4.2l4.6 7.5 4.7-7.5h4.2v17.7h-3.9M66.8 46.5V28.8h13.3v3.4h-9.5v3.6H79v3.5h-8.4v3.8h9.7v3.4H66.8M95.5 46.5l-8.8-11.3v11.3h-3.9V28.8h3.7l8.4 10.9V28.8h4v17.7h-3.4M56 24.7c-1.2-.6-2.6-1.2-4-.7a4 4 0 0 0-2.4 0c-1.2.6-2.9 1.4-4.2.5l.8.6c.9.6 2 .5 3 .1.7-.3 1.3-1.3 2.4-1-.9.4-1.7 1-2.4 1.7l.4.3c.7-.8 1.5-1.5 2.4-1.9.9.4 1.7 1.2 2.4 1.9l.4-.4a9.8 9.8 0 0 0-2.4-1.6h.8c.9.4 1.6 1.1 2.6 1.3 1 .1 2-.3 2.7-1l-.5.2a3 3 0 0 1-2 0Zm-10.1-3.3c.5.7.5 1.5 1.3 2l1 .4-1-.1c-1.3-.2-2.6 0-3.5-1 .4.7 1 1.3 1.8 1.6 1.4.5 2.7-.3 4-.4-1.5 0-2.4-1.8-3.6-2.5Zm12.1 0c-.8.5-1.5 1.4-2.2 2l-1.4.5c1 0 2 .5 3 .5 1.2 0 2.3-.8 2.9-1.8-.9 1-2.2.9-3.4 1l-1.1.2c1.3-.2 1.7-1.6 2.2-2.5Zm-6-.9.1.1v1c.3-.2.6-.2.9-.2-.2-.2-.4-.1-.4-.4-.1 0 0-.2 0-.4h-.5Zm-4.2-.2-.8.8c1.4 1.1 3 1.8 4.7 1.9v-1.1c-1.5 0-2.8-.6-3.9-1.6Zm8.3-.1a2 2 0 0 1-.6.5c-.7.3-.8 1-1.5 1.3-.3.2-.5-.2-.7-.3-.4.1-.8.2-1.2.1V23c1.9-.1 3.5-.8 4.8-2l-.8-.8Zm-6.9-.6s.2.1.1.2c-.2.2-.5 0-.8.3l-.5-.2a6 6 0 0 0 3.6 1.6h.1v-1c-1 0-1.8-.4-2.5-1Zm-.1-.2v.1Zm-4.7-.2.2.5c.2 1.2.3 2.5 1.3 3.2l-.9-.6c-1-.7-2.4-1-3-2.2.2 1 .9 1.7 1.6 2.3.9.8 2.1.7 3.2 1-.4-.3-.6-.6-.8-1-.4-1.2-.7-2.3-1.6-3.2Zm10.6 0c-.5.4.3.4.3.7 0 .1-.4.3-.2.5v.1l.7-.6h-.3c0-.3-.3-.5-.5-.7Zm4.5-.1-.6.8c-.8 1-.7 2.5-1.8 3.4L59 23c1.3-.4 2.7-1.7 3-3-.3.6-.8 1-1.3 1.3-.9.4-1.8.9-2.5 1.5 1.2-.9.9-2.5 1.4-3.7Zm-9.6-.9-.8.8c.7.5 1.5.9 2.2 1-.3 0-.4-.3-.5-.5 0-.2.2-.2.1-.4l.4-.2h-.2c-.5-.1-.9-.3-1.2-.7Zm3.6-.1-.2.1H53v.1h-.3c0 .3-.1-.1-.3 0 0-.2-.2 0-.3 0 0 0 0 .2-.2.2 0 .1-.2 0-.2.2h.7c0 .2.3 0 .4.1l.1-.1c.2 0 .5-.2.6-.4v-.2Zm-.4-.2s.2 0 .3-.2c-.2 0-.4.1-.3.2Zm-2.2-.7-.7.7c.4.3.8.5 1.3.6l.1-.3h.2v-.7c-.2.2-.4 0-.6 0l-.3-.3Zm4.5 0c-.2-.2-.2.1-.3.1l-.1-.1-.3.4c-.3-.1-.2.3-.5.2 0 .2.2 0 .2 0h.1c0-.2.2-.3.3-.2l.1.4v.2c-.2.2-.1.5-.4.5l-1-.2c.2.1.5.1.7.3h.6l.1-.5.2.3c.3-.5.7-.9.8-1.5h-.5Zm-11.7 0-.1 1.2c-.3.8-.1 1.7.3 2.4l-.3-.4c-.6-1.1-2-1.7-2.2-3l.1 1.3c.5 1.5 2.1 2.3 3.2 3-.8-1.3-.4-3.2-1-4.6Zm9.8 0c-.1.1.2.1.2.3v-.2l-.2-.2Zm6.7-.2c-.7 1.4-.2 3.3-1 4.7l.1-.2c1.6-.8 3.5-2.2 3.2-4.3 0 .2-.1.5-.3.7-.6 1-1.6 1.8-2.1 2.8H60v-.2c.8-1 .2-2.3.2-3.5Zm-9.7-.1-.1.2.2-.2Zm-1.1-.3.5 1 .3-.3v-.1l-.1-.3v.2l-.3-.2-.1-.2-.3-.1Zm-3-.5.2 1.5v-.1c.1-.2.1-.5.3-.7.2 0 .2-.3.5-.3l.1.2V16h-1.2Zm-1.6 0c.1 1.8.8 3.4 2 4.7l.8-.8-.4-.4c-.2 0-.3-.2-.3-.3l-.4-.2s0-.2-.2-.2c0-.1-.3-.1-.3-.3l-.1.1-.3-.2c-.3 0-.1-.3-.3-.4l.1-.6h.3l.1-.1c.2-.2.3 0 .4.2A4 4 0 0 1 46 16a6 6 0 0 1-1.2 0Zm3 0c0 .3.1.5 0 .8 0-.1.3-.2.1-.4.1 0 0-.3.2-.4h-.3Zm8.7 0v.4c-.2.3.2.3 0 .5 0 .1 0 0-.1 0-.2.7-.6 1.4-1 2 0 0 .1.2.3.2V19c.3 0 .3.4.4.6.7-.8 1.1-1.6 1.3-2.6.1-.3 0-.7.2-1h-1.1Zm1.4 0c0 1.5-.6 2.9-1.5 3.8l.8.8c.9-1 1.5-2.2 1.8-3.6l.1-1H58Zm-2.5 0 .2.2c0 .2.4.3.4.5l.1-.7h-.7Zm.2-.4Zm-7-.1c-.2 0 0 .3 0 .5h-.2c0 .3-.1.3-.3.3 0 .2.1.3 0 .4.2.2.4.4.3.7.2.2.1.5.2.7l.2.4-.2.2v.1l1-1a3 3 0 0 1-.7-1.4h-.1l-.1.3c-.1 0-.2 0-.2-.2h.1v-.4l.2.2.2-.1v-.6l-.3-.1Zm3-1c.1.2.2.4 0 .4 0 .2-.3.2-.4.4-.3 0-.2.5-.3.7-.2 0-.1-.2-.2-.3v.1c-.4-.2-.3.3-.5.3h.6l.1-.2h.2V16.3s0 .3-.2.2v.1l.2-.2c.1 0 .2-.1.1-.2h.6c.1.2 0 .3 0 .4l-.1.2-.5.1c.2.2.5.3.8.3.3 0 .1-.4.3-.5h.4V16c0-.1 0-.3-.2-.3v-.2c.2 0 0-.2 0-.3-.2 0-.2-.4-.5-.3-.1 0-.3-.1-.3-.3h.2-.2Zm-10-.4c-.3.9-.3 2 0 2.8.2 1 1.1 1.6 1.6 2.3v-1c.2-1.2.7-2.3.6-3.6-.1 1-1 1.6-1 2.5v1.2l-.2-.6c-.1-1.3-1.1-2.2-1-3.6Zm20.6-.1c.2 1.1-.5 2-.8 3-.1.3 0 .8-.3 1.1l.1-.5c.2-1.3-1-2-1.2-3.1v.8c.1 1.3 1 2.4.8 3.8l.7-1c1-1 1.3-2.8.7-4.1Zm-10.5-.8c-.6 0-1.2.3-1.6.7l.4.2v.1c0 .2 0 0 .1 0h.3c0 .2.2 0 .2 0s.2 0 .1-.2l.2-.2c0 .4.3 0 .3.2v-.8Zm.4 0v.7l.3.1.4-.3.1.1c0 .4-.3.5-.5.7.3-.3.4.2.6 0 0-.3.5-.2.6-.5h-.2c0-.2.2-.2.2-.3a4 4 0 0 0-1.5-.5ZM49 13a5 5 0 0 0-.7 1l-.4 1.6h.4v-.3c0-.2.1-.6.5-.6.1 0 0-.2 0-.2.3 0 .4-.3.6-.4.2 0 .2-.3.4-.3l-.8-.8Zm6 0-1 1.1.1.1s0-.3.2-.3h.7l.3.4v.2h.3c.2 0 .2.1.3.2v.1c0 .2-.2.2-.1.3h.1c.3-.2.1-.5 0-.7 0-.2-.3-.3-.4-.4v-.2c0-.3-.3-.5-.4-.8Zm-7-1c-1 1-1.5 2.3-1.6 3.6h1.1c0-1 .5-2 1.2-2.8l-.8-.8Zm4.2-.3v1c.7.1 1.4.4 1.8.8l.8-.7c-.7-.6-1.6-1-2.6-1Zm-.4 0c-1 0-1.8.5-2.5 1l.7.8c.5-.4 1.1-.7 1.8-.7v-1.1Zm-9-.3a4 4 0 0 0-.8 1.7c-.2 1.3.5 2.3.7 3.4.2-1.4 1.8-2.3 1.9-3.9-.5.9-1.6 1.3-1.8 2.3v.5h-.1v-.7c.2-1.1-.4-2.3.2-3.3Zm18.3-.1c.5.7.2 1.8.2 2.7v1.2-.5c-.3-1-1.4-1.4-1.8-2.2 0 .3 0 .5.2.8.4 1.1 1.5 1.9 1.7 3.1.1-1.2 1-2 .6-3.4-.1-.6-.4-1.2-.9-1.7ZM46.8 11a7.4 7.4 0 0 0-2 4.6H46v-1c.3-1 .8-2 1.6-2.8l-.8-.8Zm10.3 0-.8.7v.2c.4.2.5.5.8.7 0 .2.3.4.3.7.4.7.5 1.5.6 2.3H59c-.1-1.9-.8-3.4-2-4.7Zm-9 .7.8.8c.7-.7 1.7-1.2 2.8-1.2v-1a6 6 0 0 0-3.6 1.4Zm7.2-1.5v.2c.2 0 .2.3.4.2v-.3c-.1-.1-.3 0-.4 0Zm-3.2 0v1.1c.9 0 1.7.3 2.4.8l-.1-.2v-.3l.3.3c.5 0 .2.6.6.8v.2c.2 0 .3.1.3.3 0 .2.3 0 .4 0v.3c.1 0 0 .1 0 .2l.2.1v.6c.2.2 0 .4 0 .6-.2 0-.2.4-.5.3v.3h.4c-.2-.3.1-.6.2-1h.2v1h1a6 6 0 0 0-.4-2h-.3l-.4-.5-.3-.1c-.3 0-.2-.4-.4-.3l-.3-.3-.1-.5H55c-.1.1-.2 0-.2-.1-.1-.1 0-.2 0-.4-.2-.1-.1-.5-.4-.6l-1.5-.5h-.8Zm-9 .8c-.5.9 0 2-.2 3 .2-.4.6-.8 1-1 .7-.6 1.4-1.4 1.5-2.3-.5 1-1.9 1.2-2.2 2.4.5-1 .2-2.3 1.2-3-.5.1-1 .5-1.2 1Zm16.3-1c.8.4.7 1.3 1 2l.2 1c-.4-1.2-1.7-1.3-2.2-2.4l.2.6c.3 1.3 1.8 1.6 2.4 2.7-.2-.8.1-1.7-.1-2.5-.2-.7-.8-1.3-1.5-1.5ZM53 9.3l-.5.2s-.3 0-.2.1l.3.2c.3-.2.7 0 1-.2-.1-.3-.4-.3-.6-.3Zm-6.6-.2c-.7.2-1.4.5-1.9 1-.4.6-.5 1.2-.7 1.7l.6-.5c.9-.6 1.1-1.6 2-2.2Zm11-.1.5.5c.6.8 1.3 1.7 2 2.2 0-.3-.1-.7-.3-1-.3-1-1.4-1.4-2.2-1.7ZM47 10.8l.9.8c1-1 2.3-1.6 3.8-1.7V9c-1.8 0-3.3.7-4.7 1.9Zm5.1-2v1h.1v.2c.5 0 1 0 1.5.2.5 0 .9.6 1.4.3.1.2.3 0 .4.3.2 0 .3.2.4.3l.2.4c.2-.3.4-.6.7-.7A7 7 0 0 0 53.2 9l-1-.2Zm6.4 3.6a7.4 7.4 0 0 1-.5 8 7.6 7.6 0 0 1-8.2 2.7 7.4 7.4 0 0 1-1.6-13.6c2-1.3 5-1.4 7.1-.2 1.3.6 2.6 1.8 3.2 3Zm64 1.1a39 39 0 0 0 6.8-.8V8.5h-6.8v5m13 0c-1.1.7-2.4 1.2-3.7 1.6v5.2a19 19 0 0 0 5-6.1v-1.5l-1.3.9m-6.2 8.3V16c-2.1.4-4.4.7-6.8.8v6.8c2.4-.2 4.7-.8 6.8-1.8m2.5-13.4v3.3a17 17 0 0 0 5-2.5v-.8h-5" fill="#0091C6"/>
<path d="M119.1 8.5h-6.7v4.1c2 .5 4.3.8 6.7 1V8.4m-9.3 3.3V8.5h-5v.8a22.8 22.8 0 0 0 5 2.6m9.3 5c-2.3 0-4.6-.4-6.7-.8v5.7c2 1 4.3 1.7 6.7 1.9v-6.8m-9.3 2.6v-4.7c-1.8-.5-3.6-1.3-5-2.1V14c1.3 2 3 4 5 5.4m2.6 21.5v-3.2h6.7v-3.2h-6.7v-3.2h6.7V26a21 21 0 0 1-14.3-7.4v28H119V41h-6.7" fill="#68AFD5"/>
<path d="M122.5 26v5.5h6.5v3.1h-6.5v3.2h6.5V41h-6.5v5.5H137V18.6a21 21 0 0 1-14.4 7.5" fill="#0091C6"/>
</svg>