<?xml version="1.0" encoding="UTF-8" standalone="no"?>
<svg
   width="842.01831"
   zoomAndPan="magnify"
   viewBox="0 0 631.51375 546.36571"
   height="728.48761"
   preserveAspectRatio="xMidYMid"
   version="1.0"
   id="svg97"
   xml:space="preserve"
   xmlns="http://www.w3.org/2000/svg"
   xmlns:svg="http://www.w3.org/2000/svg"><defs
     id="defs28"><clipPath
       id="72a3df9670-0-6-7"><path
         d="m 294,571 h 279 v 78.83203 H 294 Z m 0,0"
         clip-rule="nonzero"
         id="path1-01-5-9" /></clipPath></defs><g
     id="g2"
     transform="translate(-1022.7631,-93.517087)"><g
       id="g1-5-2-7"
       transform="matrix(0.98270768,0,0,0.98270768,969.59809,1.2878959)"><path
         fill="#ffffff"
         d="m 460.19533,635.21094 c 0,0 -68.4258,-79.40235 -148.6485,-57.21485 -36.8945,15.0625 -58.6171,25.69141 -70.5273,28.02344 -11.793,2.10156 -39.582,4.32031 -56.5156,-7.12109 31.0625,28.375 59.9023,30.125 81.1562,26.15625 21.25,-4.08594 42.5039,-21.3711 47.9922,-25.8086 5.6016,-4.32031 25.8047,-28.37109 65.0391,-12.84375 28.375,13.3125 64.457,52.42969 70.5273,59.4375 l 10.9766,-10.6289"
         fill-opacity="1"
         fill-rule="nonzero"
         id="path30-4-4-2" /><path
         fill="#ffffff"
         d="m 311.08593,576.48047 c -0.1172,0 -31.7617,13.3125 -31.7617,13.3125 -18.5664,7.9414 -30.8281,13.07812 -38.6485,14.59765 -3.621,0.69922 -36.082,6.1875 -55.2343,-6.89062 l -1.9844,2.45312 c 0,0.11719 0.1172,0.23047 0.1172,0.23047 25.3398,23.00391 53.0117,31.87891 82.4375,26.39063 14.1289,-2.6836 30.4765,-11.32422 48.4609,-25.92188 0.2305,-0.11718 2.336,-1.98437 2.336,-1.98437 7.3554,-6.65625 26.8554,-24.40625 61.3007,-10.74219 27.4414,12.84375 62.586,50.32422 69.8282,58.96484 l 1.1679,1.28516 13.3125,-12.84375 -1.0507,-1.16797 c -0.7032,-0.8164 -69.9454,-79.86719 -150.2813,-57.68359 z m -69.7109,31.0625 c 8.0547,-1.51953 20.4336,-6.77344 39.1172,-14.83203 l 31.6445,-13.19532 c 74.7305,-20.66796 139.6484,48.8086 145.8437,55.58204 -1.6328,1.63671 -7.0039,6.77343 -8.7578,8.41015 -8.9883,-10.27734 -42.7344,-45.89062 -69.9414,-58.5039 -36.3164,-14.47657 -56.8672,4.20703 -64.6914,11.32812 l -1.8672,1.75 c -17.75,14.24609 -33.6289,22.76953 -47.4101,25.33984 -25.1016,4.78516 -48.9258,-1.98437 -71.1094,-18.91796 19.7344,6.89062 43.9062,3.62109 47.1758,3.03906"
         fill-opacity="1"
         fill-rule="nonzero"
         id="path31-4-9-2" /><path
         fill="#ffffff"
         d="m 296.25393,574.375 c 0,0 -44.1407,9.45703 -60.7188,14.24609 -16.582,4.90625 -72.62888,5.83985 -105.32029,-43.90625 25.92188,21.25391 57.68359,21.25391 70.41019,20.78516 12.8437,-0.35156 45.8906,4.55469 62.1211,7.58984 -0.3516,-3.03515 -16.6993,-6.65625 -21.6016,-9.22265 -4.9063,-2.57032 -18.6836,-6.65625 -35.3828,-43.08985 -5.6055,-11.09375 -6.5391,-17.28125 -10.3906,-20.66797 7.0039,1.05079 20.6679,15.76563 24.8711,20.19922 4.2031,4.4375 29.6601,33.7461 44.1367,41.21875 14.4804,7.59375 21.6054,11.21094 31.8789,12.84766"
         fill-opacity="1"
         fill-rule="nonzero"
         id="path32-4-8-7" /><path
         fill="#ffffff"
         d="m 194.31643,501.39844 c 2.1015,1.75 3.2695,4.55078 5.0234,8.87109 l 5.0195,11.21094 c 15.5313,33.98047 28.4922,40.16797 34.6797,43.20312 l 1.2852,0.58594 8.9922,3.26953 c 0.9336,0.35156 2.2187,0.81641 3.3867,1.16797 -16.6992,-2.6875 -41.1055,-6.07422 -52.082,-5.72266 -28.3711,0.81641 -51.7266,-6.07031 -69.35941,-20.55078 l -2.44922,2.21875 c 31.52344,47.75782 86.75783,50.5586 107.19533,44.48828 16.2304,-4.78906 60.1328,-14.01171 60.6015,-14.1289 l -0.1171,-3.15235 c -10.1602,-1.7539 -17.2813,-5.37109 -31.4102,-12.73046 -12.2617,-6.42188 -33.0469,-29.30469 -40.8711,-37.94922 l -2.8008,-3.03516 -1.0508,-1.05078 c -8.7578,-9.22266 -18.5664,-18.67969 -24.7539,-19.5 l -1.2851,2.80469 z m 55.9336,64.10547 -8.4063,-3.03907 -1.4023,-0.69922 c -5.4883,-2.57031 -18.0977,-8.75781 -33.1641,-41.6875 0,-0.11328 -5.0195,-11.08984 -5.0195,-11.08984 -0.9336,-2.45312 -2.1016,-3.62109 -3.1524,-5.375 6.4219,3.73828 15.1797,12.73047 18.918,16.69922 l 1.0508,1.05078 2.6836,3.03516 c 7.9414,8.64062 29.0742,31.99609 41.9219,38.65234 10.9765,5.72266 17.8632,9.22266 25.2187,11.32422 -13.1953,2.92187 -41.3359,8.99219 -53.8281,12.73047 -18.5664,5.48828 -66.6758,3.03515 -97.61721,-35.61719 17.04688,10.97656 38.17971,16.46484 63.28911,15.64844 12.2578,-0.35156 44.1367,4.20312 61.6523,7.47265 l 2.1016,0.46485 -0.2344,-2.21875 c 0,-0.46485 -0.9336,-0.81641 -1.2852,-1.28125 l -0.1172,-0.11719 c -1.5156,-1.87109 -5.0195,-3.50391 -12.6093,-5.95703"
         fill-opacity="1"
         fill-rule="nonzero"
         id="path33-8-8-0" /><path
         fill="#ffffff"
         d="m 214.75003,556.63281 c 0,0 -22.1836,-6.07422 -38.6485,-8.40625 -16.582,-2.21875 -74.38278,-16.8164 -96.917936,-84.66015 22.769536,26.50781 27.906246,28.14453 41.218746,34.79687 13.42969,6.65625 53.82809,29.66016 67.83989,42.26953 l 4.0898,2.33594 c 0,0 1.3984,-1.75 -4.7891,-7.00391 -5.9531,-5.375 -26.39059,-23.9414 -29.54293,-65.50781 -2.56641,-18.33203 -6.65234,-35.03125 -7.9375,-37.25 9.22266,5.25391 20.08203,26.50781 22.30073,32.46094 2.2188,6.07422 17.1641,47.99219 19.1524,53.01562 1.8672,4.90235 14.0117,31.52735 23.2344,37.94922"
         fill-opacity="1"
         fill-rule="nonzero"
         id="path34-1-2-3" /><path
         fill="#ffffff"
         d="m 148.65625,433.91016 c 1.05078,1.86718 5.13672,18.09765 7.70312,36.78125 1.51954,19.5 7.94141,46.9414 30.12886,66.4414 0.1172,0 0.1172,0 0.1172,0.11719 -15.414,-12.72656 -52.07809,-33.62891 -65.50777,-40.28516 l -2.10157,-1.16797 c -11.55859,-5.71875 -17.39843,-8.52343 -38.535156,-33.27734 l -2.80078,1.51563 c 24.523436,73.91796 90.730466,84.89062 98.203076,85.82812 16.2305,2.10156 38.1836,8.40625 38.4141,8.40625 l 1.4024,-2.80469 c -8.5235,-6.07031 -20.4336,-31.41015 -22.7696,-37.36328 l -19.0312,-52.89453 c -2.1055,-5.48828 -13.07815,-27.67578 -23.00393,-33.39844 z m 44.95308,109.99609 c 0.3516,-0.35156 0.4688,-0.81641 0.4688,-1.40234 0,-1.51563 -1.0508,-3.96875 -5.4883,-7.70704 -21.25389,-18.91406 -27.55858,-45.42187 -28.96092,-64.45312 -1.75,-12.61328 -4.32032,-24.875 -6.30469,-31.99609 7.70703,7.70703 15.64841,22.88671 17.51561,27.90625 l 19.1524,53.01562 c 1.2812,3.38281 10.8593,24.40234 19.8476,34.44531 -7.4726,-1.86718 -21.8359,-5.48828 -33.6289,-7.00781 -6.7695,-0.93359 -65.27343,-11.32422 -91.542966,-74.61328 15.878916,17.63281 22.417976,21.48437 32.808596,26.625 l 2.21875,1.05078 c 13.89844,7.00391 53.71482,29.65625 67.49222,42.03516 0.2343,0.23437 4.4375,2.57031 4.4375,2.57031 l 1.1679,0.69922 0.8164,-1.16797"
         fill-opacity="1"
         fill-rule="nonzero"
         id="path35-1-7-6" /><path
         fill="#ffffff"
         d="m 152.97656,501.28516 c 0,0 -27.78906,-16.23047 -43.08593,-28.14063 -15.296876,-12.02734 -58.269536,-43.32031 -53.832036,-98.90234 6.65625,17.98047 17.51562,34.33203 29.30859,44.2539 11.79297,10.04297 33.160156,41.57032 38.300786,48.92578 5.01953,7.35547 8.52344,9.34375 8.52344,9.34375 0,0 1.63281,-3.62109 -4.08594,-9.92578 -4.20313,-6.77343 -11.79688,-22.65625 -7.70703,-57.33593 5.13672,-32.22657 7.0039,-39.9336 6.07031,-44.95313 4.4375,11.32422 10.27734,35.73047 12.49609,73.91406 1.28125,21.60157 3.73438,38.30078 6.53907,45.65625 2.91796,7.23828 7.47265,17.16407 7.47265,17.16407"
         fill-opacity="1"
         fill-rule="nonzero"
         id="path36-0-1-0" /><path
         fill="#ffffff"
         d="m 124.95313,364.90234 c 0.11718,0.69922 0.11718,1.51563 0.11718,2.44922 0,3.6211 -0.93359,9.34375 -2.92187,21.48828 l -3.26953,20.4336 c -0.81641,6.89062 -1.28125,13.19531 -1.28125,19.14843 0,16.34766 3.03515,29.54297 9.10547,39.23438 1.98437,2.10156 2.92187,3.73828 3.5039,5.14062 -1.40234,-1.40234 -3.15234,-3.26953 -5.2539,-6.30859 0,0 -1.75391,-2.44922 -1.75391,-2.44922 -7.00391,-10.27734 -25.921876,-37.48437 -36.781256,-46.70703 -11.55859,-9.80859 -22.30078,-26.04297 -28.95703,-43.67187 l -3.03515,0.46484 c -4.32422,54.41406 35.61328,85.47656 52.660156,98.90234 l 1.7539,1.28516 c 15.17969,11.91016 42.96875,28.25781 43.20313,28.375 l 2.33594,-1.98438 -7.35938,-17.16406 c -2.80078,-7.47656 -5.25391,-24.28906 -6.53906,-45.1914 -2.6836,-46.24219 -10.27344,-68.66016 -12.49219,-74.38282 z m 0.35156,24.40235 c 1.28125,-7.35547 1.98437,-12.02735 2.44922,-15.76172 3.15234,10.97656 7.58984,31.52734 9.57421,65.03906 1.28516,21.13281 3.73829,38.30078 6.77344,46.125 0,0 3.26953,7.58984 5.3711,12.72656 -8.28907,-5.02343 -27.08985,-16.58203 -38.64844,-25.57422 l -1.75391,-1.39843 C 93.308594,458.08203 57.343754,430.05859 57.343754,382.18359 v -1.75 c 6.88671,15.87891 16.23046,30.24219 26.97265,39.34766 10.625,8.875 29.308596,35.96484 36.316406,46.125 l 1.63282,2.45312 c 5.2539,7.47266 8.99218,9.69141 9.10937,9.8086 l 1.63281,0.93359 0.58594,-1.7539 c 0.34766,-0.46485 1.86719,-4.78516 -4.32031,-11.67579 -7.70703,-12.375 -10.16016,-31.29296 -7.24219,-55.93359 l 3.26953,-20.43359"
         fill-opacity="1"
         fill-rule="nonzero"
         id="path37-3-7-9" /><path
         fill="#ffffff"
         d="m 106.73828,423.86328 c 0,0 -9.574216,-14.94531 -18.214846,-24.75391 -8.64062,-9.57421 -46.82422,-52.77734 -27.09375,-125.64453 0,16.92969 2.33594,26.50782 4.08985,32.57813 1.98437,5.95703 20.89843,46.58984 22.76953,57.5664 1.86719,10.97657 5.01953,31.64454 9.45703,33.98047 1.63672,-1.05078 -0.23438,-4.67187 -0.81641,-8.05859 -0.70312,-3.26953 -6.1914,-31.52344 10.390626,-62.23438 15.0625,-26.97656 17.86719,-29.54296 20.08594,-38.88671 0.69922,17.63281 -5.02344,52.54687 -9.57422,67.25781 -4.4375,14.59765 -16.46484,48.57812 -11.09375,68.19531"
         fill-opacity="1"
         fill-rule="nonzero"
         id="path38-5-9-8" /><path
         fill="#ffffff"
         d="m 87.355464,400.27734 c 8.40625,9.45703 17.980476,24.28907 17.980476,24.40235 l 2.91797,-1.28125 c -4.66797,-17.05078 4.55468,-46.24219 9.46093,-62.00391 l 1.63282,-5.25781 c 4.32031,-14.01172 10.39453,-49.39063 9.6914,-67.83985 l -3.15234,-0.35156 c -1.63281,6.42188 -3.38672,9.69141 -9.57422,20.32031 l -10.39062,18.33204 c -9.808596,18.09765 -12.027346,35.49609 -12.027346,47.64062 0,7.12109 0.8164,12.02734 1.28125,14.59375 -2.10157,-7.12109 -3.96875,-17.51562 -5.01953,-23.11719 l -0.35157,-2.33593 c -1.28125,-7.70704 -10.15625,-28.375 -16.69531,-43.4375 l -5.95703,-14.36329 c -1.75,-5.60546 -4.08594,-15.17968 -4.08594,-32.10937 L 59.914064,273 c -12.96094,47.75781 -3.15235,92.94922 27.4414,127.27734 z m 2.33204,-2.21875 c -21.25,-23.70312 -32.10938,-52.89453 -32.10938,-84.53906 0,-8.875 1.16797,-17.86719 2.80078,-26.97656 0.82031,9.46094 2.33594,15.76562 3.6211,19.96875 l 6.1875,14.71094 c 6.07421,14.01171 15.29687,35.38281 16.46484,42.62109 l 0.35156,2.45312 c 2.91797,16.46485 5.60547,30.35938 10.04297,32.69532 l 0.81641,0.34765 0.8164,-0.46484 c 0.9336,-0.58594 1.28516,-1.63672 1.28516,-2.6875 0,-1.28516 -0.35156,-2.68359 -0.81641,-4.08594 l -0.69922,-2.80078 c -0.46875,-2.10156 -1.40234,-7.47656 -1.40234,-15.18359 0,-11.67578 2.21875,-28.48828 11.792966,-46.00391 l 10.27344,-18.21875 c 2.92188,-5.13672 4.90625,-8.52344 6.3086,-11.55859 -0.9375,18.91797 -5.60547,45.1914 -9.10938,56.86718 l -1.63672,5.25391 c -4.32031,13.66016 -10.97265,34.5625 -10.97265,51.73047 0,1.86719 0.46484,3.5 0.69921,5.25391 -3.62109,-5.25391 -9.226556,-13.19532 -14.714836,-19.38282"
         fill-opacity="1"
         fill-rule="nonzero"
         id="path39-8-5-9" /><path
         fill="#ffffff"
         d="m 90.742184,335.23828 c 0,0 -5.72265,-23.23828 -12.73047,-41.80469 -7.0039,-18.67968 -20.43359,-62.0039 14.36329,-107.19531 -7.35547,17.98438 -4.4375,29.66016 -4.4375,31.64453 0,1.98438 4.32031,41.92188 4.4375,51.84375 0.11718,12.73047 -2.21875,34.67969 -2.21875,34.67969 0,0 0.8164,2.6875 2.57031,0 1.05078,-1.63281 3.38281,-30.00781 20.433596,-46.94141 15.76171,-15.76172 28.60546,-27.67187 32.10937,-34.21093 0,11.55859 -6.65625,28.60937 -12.14453,37.83203 -5.37109,9.33984 -27.67187,39.93359 -32.80859,50.21093 -5.023446,10.39063 -9.578126,22.65235 -9.578126,23.9375"
         fill-opacity="1"
         fill-rule="nonzero"
         id="path40-9-0-6" /><path
         fill="#ffffff"
         d="m 76.496094,294.01953 c 6.88672,18.21484 12.60937,41.45313 12.72656,41.68359 l 3.15235,-0.34765 c 0.11718,-1.28516 4.32031,-12.84375 9.457026,-23.23828 2.92188,-6.07032 11.91016,-19.26563 19.96875,-30.94141 l 12.72656,-19.26953 c 5.95703,-10.15625 12.26172,-27.20703 12.26172,-38.64844 l -2.92187,-0.8164 c -2.80078,5.2539 -11.91016,14.24609 -23.58594,25.6875 l -8.28906,8.17187 c -14.128906,14.01563 -18.449226,35.96484 -20.085936,44.14063 0,0 -0.35157,1.86718 -0.46485,2.6875 0.58203,-2.92188 2.44922,-33.39844 2.44922,-33.39844 l -3.26953,-40.98438 -1.16797,-12.3789 c -0.23047,-1.40235 -0.46484,-3.61719 -0.46484,-6.53907 0,-5.37109 0.93359,-13.19531 4.78515,-23 l -2.68359,-1.63671 c -24.63672,32.10937 -29.54297,68.66015 -14.59766,108.82812 z m 3.03516,-1.16797 c -5.48829,-14.71484 -8.29297,-28.96094 -8.29297,-42.62109 0,-19.14844 5.72265,-37.13281 16.46484,-54.0625 -1.28125,5.37109 -1.86719,10.15625 -1.86719,13.66015 0,3.03516 0.23438,5.3711 0.35157,6.89063 0.23437,1.16797 1.16796,12.375 1.16796,12.375 l 3.38672,40.63672 c 0,0 -2.21875,34.44531 -2.21875,34.44531 0.23047,1.05078 0.81641,2.80469 2.44922,2.92188 1.16797,0.23437 2.21875,-0.46875 3.03906,-1.8711 l 1.05079,-4.20312 c 1.63281,-7.9375 5.718746,-29.07422 19.148436,-42.38672 l 8.40625,-8.28906 c 9.57422,-9.45704 16.11328,-16.23047 20.32031,-21.71875 -1.51953,10.97656 -6.89063,24.40234 -11.21094,31.76171 l -12.61328,19.03125 c -8.05469,11.67579 -17.16406,24.98829 -20.199216,31.17579 -3.03516,6.1914 -6.07031,13.66406 -7.94141,18.91796 -2.21875,-7.9414 -6.42187,-23.46875 -11.4414,-36.66406"
         fill-opacity="1"
         fill-rule="nonzero"
         id="path41-9-3-4" /><path
         fill="#ffffff"
         d="m 100.78125,256.07422 c 0,0 2.57031,-6.42188 0.23438,-32.34766 -2.453126,-25.92187 -3.503916,-61.30078 36.66406,-85.12109 -10.03906,16.8125 -11.67578,19.73437 -14.71094,33.51172 -3.03516,13.66015 -6.42187,35.61328 -11.91016,47.99218 -2.21875,6.07032 -3.62109,10.85938 -2.57031,11.44141 0.9336,0.58594 1.40235,-0.46484 2.10156,-2.56641 0.9336,-2.10156 9.10938,-20.66796 25.69141,-32.46484 16.57812,-11.79297 31.52734,-23.58594 37.12888,-35.26172 -2.4492,21.60156 -10.62497,29.3086 -18.79685,40.16797 -8.875,11.79297 -40.7539,36.42969 -46.125,44.48828 -5.48828,7.94141 -7.70703,10.15625 -7.70703,10.15625"
         fill-opacity="1"
         fill-rule="nonzero"
         id="path42-0-4-0" /><path
         fill="#ffffff"
         d="m 99.378904,223.83984 c 2.335936,24.875 -0.11719,31.52735 -0.11719,31.52735 l 2.570316,1.86718 7.94141,-10.50781 c 2.45312,-3.61719 11.09375,-11.21094 20.08203,-19.26562 10.51172,-9.22657 21.37109,-18.80078 26.03906,-25.10547 l 3.26953,-4.20313 c 7.00781,-8.99218 13.66407,-17.51562 15.88277,-36.66406 l -3.0351,-0.9375 c -5.60548,11.5625 -20.90236,23.47266 -36.66798,34.67969 -12.02734,8.52734 -19.61719,20.4375 -23.46875,27.55859 0.23438,-0.8164 0.34766,-1.05078 0.69922,-2.10156 4.20312,-9.33984 7.00781,-24.05469 9.69141,-36.89844 l 2.21875,-11.32422 c 3.03515,-13.3125 4.43749,-16 14.59765,-33.04687 l -2.21875,-2.21875 c -43.207026,25.6875 -39.468746,65.39062 -37.484376,86.64062 z m 4.203126,18.80078 c 0,-4.78906 -0.23047,-10.97656 -1.05078,-19.03515 -0.46484,-5.01953 -0.93359,-11.08985 -0.93359,-17.7461 0,-18.91796 5.60547,-42.38671 30.35937,-60.60156 -6.1875,10.50781 -8.05469,15.0625 -10.50781,26.50391 l -2.45313,11.32812 c -2.44921,12.72657 -5.37109,27.20703 -9.45703,36.42969 -2.21875,5.95703 -3.03515,9.22656 -3.03515,11.09375 0,1.28516 0.46875,1.86719 1.16797,2.33594 l 0.58203,0.35156 1.40234,-0.11719 c 1.28516,-0.46875 1.86719,-1.86718 2.45313,-3.73828 0.8164,-1.86719 9.10546,-20.19922 25.10546,-31.64453 13.19532,-9.33984 25.6875,-19.26562 33.16019,-29.07422 -2.68362,12.72656 -7.82425,19.85156 -13.77737,27.5586 l -3.26954,4.08593 c -4.55468,6.07032 -15.64843,15.9961 -25.57421,24.75391 -9.57422,8.52344 -17.98047,15.88281 -20.66797,19.85156 0,0 -1.86719,2.57031 -3.73438,5.01953 0.11719,-1.98437 0.23047,-4.20312 0.23047,-7.35547"
         fill-opacity="1"
         fill-rule="nonzero"
         id="path43-9-0-2" /><path
         fill="#ffffff"
         d="m 130.79297,187.29687 c 0,0 5.2539,-27.4414 15.76172,-43.67187 10.50781,-16.23047 32.34374,-30.59375 55.34764,-37.71484 -8.0547,6.76953 -12.9609,12.84375 -15.7617,17.74609 -2.8047,4.78906 -20.20313,31.99609 -28.14454,40.63672 -8.17187,8.64062 -21.25,16.46484 -27.20312,23.0039"
         fill-opacity="1"
         fill-rule="nonzero"
         id="path44-2-1-9" /><path
         fill="#ffffff"
         d="m 145.16016,142.6875 c -10.51172,16.34766 -15.64844,43.20312 -15.88282,44.25391 l 2.80469,1.40234 11.67578,-9.92578 15.29688,-13.07813 c 8.28906,-8.875 25.80464,-36.19922 28.49214,-40.86718 3.2696,-5.72266 8.4063,-11.5625 15.4141,-17.39844 l -1.5195,-2.6875 c -24.2891,7.47266 -45.77346,22.1875 -56.28127,38.30078 z m 2.80078,1.75391 c 8.875,-13.78125 26.62109,-26.27344 46.94139,-34.09766 -4.0859,4.20313 -7.707,8.40625 -10.1601,12.49219 -2.6836,4.55469 -19.96489,31.64453 -28.02348,40.40234 0,0 -19.73438,16.69922 -23.35547,19.73438 1.98828,-8.40625 6.89063,-26.625 14.59766,-38.53516"
         fill-opacity="1"
         fill-rule="nonzero"
         id="path45-8-5-0" /><path
         fill="#ffffff"
         d="m 296.71873,637.31641 c 0,0 66.4414,-81.15235 147.125,-60.94922 37.3633,14.1289 59.1992,24.16797 71.2266,26.03906 11.9101,1.98437 39.5859,3.5 56.2812,-8.52344 -30.3593,29.19141 -59.1992,31.75781 -80.4531,28.25781 -21.3672,-3.5039 -42.9687,-20.20312 -48.5742,-24.52343 -5.6055,-4.32032 -26.6211,-27.67188 -65.2735,-11.20703 -28.2578,14.01171 -63.289,53.94531 -69.125,61.18359 l -11.2109,-10.27344"
         fill-opacity="1"
         fill-rule="nonzero"
         id="path46-3-3-3" /><g
         clip-path="url(#72a3df9670-0-6-7)"
         id="g47-0-4-2"><path
           fill="#ffffff"
           d="m 295.4375,636.26953 -0.93359,1.16797 13.66015,12.49609 1.05078,-1.40234 c 7.125,-8.75781 41.45313,-47.17578 68.54297,-60.71875 33.98047,-14.48047 53.94922,2.80078 61.42188,9.33984 l 2.10156,1.75391 c 18.56641,14.12891 35.03125,22.53516 49.39062,24.87109 29.42579,4.66797 56.98438,-4.90625 81.6211,-28.49218 0.11719,-0.11719 0.11719,-0.11719 0.11719,-0.23438 l -1.98438,-2.45312 c -18.91797,13.54687 -51.49609,8.875 -55.11328,8.29296 -7.82422,-1.28515 -19.96875,-6.07421 -38.41797,-13.42968 l -32.46094,-12.60938 c -80.92187,-20.3164 -148.29687,60.60156 -149,61.41797 z M 443.5,577.88672 l 32.23047,12.60937 c 18.67969,7.35938 30.9414,12.26172 39.11328,13.54688 3.03906,0.46484 26.04297,3.61719 45.19141,-2.92188 -21.25,16.58203 -44.25391,23.35547 -68.89454,19.38672 -13.66015,-2.21875 -29.77343,-10.27734 -47.64062,-24.05469 -0.23047,-0.11718 -2.21875,-1.75 -2.21875,-1.75 -7.9375,-6.89062 -28.95703,-25.10546 -64.92188,-9.69531 -26.73828,13.19531 -59.78515,49.62891 -68.54296,60.25391 -1.75,-1.51953 -7.23829,-6.65625 -8.875,-8.0586 5.95703,-7.0039 69.1289,-78.11718 144.55859,-59.3164"
           fill-opacity="1"
           fill-rule="nonzero"
           id="path47-1-2-2" /></g><path
         fill="#ffffff"
         d="m 459.14843,572.39062 c 0,0 44.3711,8.17188 60.9531,12.60938 16.6953,4.4375 72.8633,3.97266 104.3946,-46.58984 -25.4571,21.95312 -57.3321,22.76953 -70.0625,22.65234 -12.7266,-0.11328 -45.7735,5.60547 -61.7696,9.10937 0.2344,-3.15234 16.4649,-7.12109 21.3711,-9.80859 4.7852,-2.68359 18.4492,-7.12109 34.211,-44.01953 5.4882,-11.21094 6.1875,-17.51563 10.0429,-20.90234 -7.0078,1.28515 -20.3164,16.34765 -24.4062,20.78515 -4.2031,4.66797 -28.9571,34.5625 -43.2031,42.38672 -14.2461,8.05469 -21.3672,11.67578 -31.5274,13.77734"
         fill-opacity="1"
         fill-rule="nonzero"
         id="path48-4-3-4" /><path
         fill="#ffffff"
         d="m 533.87113,513.89062 -1.168,1.28516 -3.1524,3.50391 c -7.5898,8.75781 -27.6757,31.99218 -39.5859,38.53125 -14.4805,8.17578 -21.3672,11.5625 -31.1758,13.54687 v 3.15235 c 0.3477,0.11718 44.4883,8.28906 60.9532,12.60937 20.5507,5.60547 75.7812,1.40234 106.0234,-47.28906 l -2.332,-1.98828 c -17.4024,14.94922 -40.6368,22.42187 -68.8946,22.1875 -11.0937,-0.11719 -35.2656,3.85156 -52.0781,7.12109 1.168,-0.46484 2.4531,-0.93359 3.5039,-1.28125 l 8.7578,-3.50391 1.3985,-0.70312 c 5.6054,-2.80078 18.8007,-9.57422 33.6289,-44.01953 l 4.789,-11.32813 c 1.6328,-4.32031 2.8008,-7.23828 4.6719,-8.98828 l -1.2852,-2.80469 c -6.0742,1.05079 -15.5312,10.625 -24.0546,19.96875 z m -42.3868,46.24219 c 12.375,-7.00781 32.1094,-29.66015 40.5157,-39.35156 l 3.039,-3.38672 1.2813,-1.40234 c 3.6211,-3.96875 12.0273,-12.96094 18.2187,-16.92969 -0.9336,1.75 -2.1015,3.03516 -3.039,5.48828 l -4.668,11.09375 c -14.3633,33.51172 -26.8594,39.81641 -32.2305,42.61719 l -1.3984,0.70312 -8.293,3.26953 c -7.5898,2.6836 -10.9765,4.4375 -12.4922,6.30469 l -0.1172,0.11719 c -0.3515,0.46875 -1.1679,0.93359 -1.2851,1.40234 l -0.1172,2.21875 2.1016,-0.58593 c 14.9492,-3.26954 48.3437,-9.10547 61.4218,-8.99219 25.1016,0.11719 46.1211,-5.83594 62.9375,-17.39844 -30.1289,39.58594 -78.1171,43.20703 -96.8007,38.18359 -12.4961,-3.38671 -40.8711,-8.875 -54.1797,-11.32421 7.1211,-2.33594 13.8945,-5.83985 25.1054,-12.02735 z m 0,0"
         fill-opacity="1"
         fill-rule="nonzero"
         id="path49-5-2-7" /><path
         fill="#ffffff"
         d="m 540.29683,552.54297 c 0,0 21.836,-6.77344 38.3008,-9.34375 16.5821,-2.6836 74.0313,-18.79688 94.8164,-87.22656 -22.0703,27.09375 -27.0898,28.84375 -40.2851,35.96484 -13.1953,6.89062 -53.1289,30.82812 -66.9102,43.78906 l -4.0859,2.45313 c 0,0 -1.168,-1.63672 4.6719,-7.00782 5.9531,-5.48828 25.9218,-24.63671 28.1406,-66.32421 2.1015,-18.33204 5.8398,-35.03125 7.125,-37.48047 -9.1094,5.60156 -19.5039,27.20312 -21.6055,33.16015 -2.1016,6.07422 -16.1133,48.34375 -17.8633,53.36328 -1.8672,5.01954 -13.3125,31.87891 -22.3047,38.65235"
         fill-opacity="1"
         fill-rule="nonzero"
         id="path50-4-9-7" /><path
         fill="#ffffff"
         d="m 578.94923,460.06641 -17.8672,53.36328 c -2.3359,6.1875 -13.543,31.64453 -21.8359,37.83203 l 1.4023,2.80078 c 0.2344,0 22.0703,-6.76953 38.3008,-9.33984 7.3555,-1.16797 73.3281,-13.77735 96.0976,-88.27735 l -2.8007,-1.51562 c -20.7852,25.45312 -26.1563,28.25781 -37.8321,34.44531 l -2.1015,1.05078 c -13.0782,7.00781 -48.6914,28.49219 -64.2227,41.6875 21.6016,-20.20312 27.4375,-47.64062 28.4883,-67.14453 2.1055,-18.79688 5.7226,-34.91016 6.8906,-36.78125 l -2.3359,-2.21875 c -9.8086,6.07422 -20.1992,28.60937 -22.1836,34.09766 z m -14.832,54.41406 17.8671,-53.36328 c 1.75,-5.13672 9.3399,-20.4336 16.8125,-28.375 -1.75,7.125 -3.9687,19.15234 -5.4882,31.8789 -1.5157,27.67188 -10.7422,49.625 -27.5547,65.39063 -4.086,3.73437 -5.2539,6.1875 -5.2539,7.70703 0,0.58203 0.1172,1.16797 0.4648,1.51562 l 0.8203,1.05079 5.2539,-3.15235 c 13.6602,-12.72656 53.0117,-36.42969 66.7891,-43.78906 l 1.9844,-1.05078 c 10.3945,-5.48828 16.8164,-9.45703 32.3476,-27.67188 -24.6406,63.98828 -82.9062,75.78125 -89.7969,76.94922 -11.6757,1.86719 -25.9218,5.72266 -33.3945,7.94141 8.7578,-10.16016 17.6328,-30.82813 19.1485,-35.03125"
         fill-opacity="1"
         fill-rule="nonzero"
         id="path51-1-4-4" /><path
         fill="#ffffff"
         d="m 600.66013,495.67578 c 0,0 27.3242,-17.05078 42.3867,-29.42578 14.9493,-12.26172 57.2188,-44.60547 51.4961,-100.07031 -6.3047,18.09765 -16.6992,34.67968 -28.2578,44.95312 -11.5625,10.27735 -32.1133,42.38672 -37.0156,49.86328 -5.0195,7.47266 -8.4063,9.57422 -8.4063,9.57422 0,0 -1.7539,-3.62109 3.8516,-10.16015 3.9688,-6.65625 11.3281,-22.88672 6.3047,-57.33204 -5.8359,-32.22656 -7.8203,-39.82031 -7.1211,-44.72265 -4.0859,11.32812 -9.3398,35.73047 -10.625,74.03125 -0.7031,21.71875 -2.9219,38.41797 -5.6055,45.77344 -2.6875,7.47265 -7.0078,17.51562 -7.0078,17.51562"
         fill-opacity="1"
         fill-rule="nonzero"
         id="path52-5-9-5" /><path
         fill="#ffffff"
         d="m 611.64453,432.38672 c -0.7031,20.90234 -2.8047,37.83203 -5.4883,45.1914 l -6.8906,17.51563 2.3359,1.98437 c 0.2344,-0.23437 27.5586,-17.28125 42.5039,-29.54296 l 1.75,-1.39844 c 16.6993,-13.78125 55.9336,-45.77344 50.3282,-100.1875 l -3.1524,-0.35156 c -6.1875,17.98437 -16.3476,34.21484 -27.789,44.37109 -10.629,9.46094 -28.8438,37.13281 -35.7305,47.64062 l -1.6367,2.57032 c -2.1016,3.03515 -3.7344,4.90234 -5.0196,6.30468 0.4649,-1.28515 1.2852,-2.91796 3.0352,-5.01953 5.6055,-9.34375 8.4062,-21.83593 8.4062,-37.01562 0,-6.77344 -0.4648,-14.01172 -1.6328,-21.60156 0,-0.11719 -3.8554,-20.78516 -3.8554,-20.78516 -2.336,-12.37891 -3.3868,-17.98047 -3.3868,-21.48438 0,-0.70312 0,-1.40234 0.1172,-1.98828 l -3.0351,-0.8164 c -2.2188,5.83984 -9.2227,28.49218 -10.8594,74.61718 z m -2.4531,46.35937 c 2.8047,-7.70703 5.0195,-24.98828 5.7226,-46.24218 1.168,-33.51172 5.1367,-54.0625 8.0547,-65.15625 0.4688,3.62109 1.2852,8.28906 2.6875,15.29687 l 3.8516,20.66797 c 1.0508,7.58984 1.6367,14.71094 1.6367,21.25391 0,14.47656 -2.6875,26.38671 -7.8242,35.02734 -3.5039,4.08984 -4.3203,7.35547 -4.3203,9.34375 0,1.28125 0.3515,2.10156 0.4687,2.21875 l 0.6992,1.75 1.5196,-0.93359 c 0.2304,-0.11719 3.8515,-2.45313 8.8711,-10.04297 l 1.7539,-2.57032 c 6.7734,-10.39062 24.7539,-37.83203 35.1445,-46.9375 10.3945,-9.34375 19.3867,-23.9375 25.8086,-39.9375 0.1172,1.28516 0.2344,2.6875 0.2344,3.97266 0,46.47266 -34.4493,74.73047 -49.7461,87.22266 l -1.75,1.40234 c -11.3282,9.33984 -29.7774,21.36719 -37.9492,26.625 1.9843,-5.02344 5.1367,-12.96484 5.1367,-12.96484"
         fill-opacity="1"
         fill-rule="nonzero"
         id="path53-4-2-3" /><path
         fill="#ffffff"
         d="m 645.03513,416.97266 c 0,0 9.2227,-15.17969 17.6328,-25.10547 8.4063,-9.8086 45.6563,-54.0625 24.1719,-126.33985 0.3477,16.9336 -1.6367,26.625 -3.3867,32.69532 -1.7539,5.95703 -19.6172,47.05859 -21.2539,58.03515 -1.75,11.09375 -4.4375,31.76172 -8.875,34.21094 -1.5156,-0.93359 0.3515,-4.66797 0.8203,-7.9375 0.582,-3.38672 5.3711,-31.87891 -11.9102,-62.00391 -15.6484,-26.50781 -18.5703,-29.19531 -20.9023,-38.41797 -0.3516,17.63282 6.3047,52.42969 10.9766,66.90625 4.9023,14.59766 17.7461,48.22657 12.7265,67.96094"
         fill-opacity="1"
         fill-rule="nonzero"
         id="path54-6-4-1" /><path
         fill="#ffffff"
         d="m 685.20703,265.52344 v 4.32031 c 0,11.09375 -1.0508,20.20312 -3.2695,27.91016 l -5.8399,15.0625 c -6.0703,15.0625 -14.3633,35.73046 -15.5312,43.20312 l -0.4649,3.15234 c -0.8164,5.72266 -2.3359,15.41407 -4.2031,22.1875 0.3477,-2.33593 0.9336,-6.30468 0.9336,-12.14453 0,-12.14453 -2.3359,-30.47656 -13.3125,-49.51172 l -10.8594,-18.09765 c -6.3047,-10.39063 -8.1758,-13.66016 -9.8086,-19.85156 l -3.2695,0.35156 c -0.2344,18.21484 6.6562,53.48047 11.2109,67.49219 l 1.8672,5.37109 c 5.2539,15.53125 15.1797,44.48828 10.8594,61.65234 l 2.918,1.16797 c 0.1172,-0.11719 9.2265,-15.17969 17.5156,-24.87109 29.7773,-35.03125 38.418,-80.45313 24.4062,-127.85938 z m -31.0625,126.33984 c 4.4375,-2.45312 6.7734,-16.11328 9.1094,-32.22656 l 0.4687,-3.03906 c 1.168,-7.23829 9.6914,-28.48829 15.2969,-42.61719 l 5.9531,-15.29688 c 1.168,-4.08984 2.336,-11.21093 2.9219,-20.78515 2.332,10.39062 3.7344,20.66797 3.7344,30.71093 0,30.35938 -10.1563,58.73438 -30.125,82.20313 -5.2539,6.1875 -10.6289,14.12891 -14.1289,19.5 0.1172,-1.28516 0.4648,-2.33594 0.4648,-3.61719 0,-17.28515 -7.3555,-38.88672 -12.1445,-52.78125 l -1.8672,-5.37109 c -3.7383,-11.67578 -8.875,-37.59766 -10.2734,-56.39844 1.5156,2.91797 3.3828,6.1875 6.4218,11.09375 l 10.8594,18.09766 c 10.5078,18.44922 12.7266,36.08203 12.7266,47.75781 0,6.53906 -0.6993,11.32812 -0.9336,13.07812 -0.1172,0 -0.8164,3.03907 -0.8164,3.03907 -0.2344,1.39843 -0.7032,2.68359 -0.7032,3.85156 0,1.16797 0.3516,2.21875 1.4024,2.80078 l 0.8164,0.46875 0.8164,-0.46875"
         fill-opacity="1"
         fill-rule="nonzero"
         id="path55-8-9-3" /><path
         fill="#ffffff"
         d="m 658.92973,328.11328 c 0,0 5.2539,-23.46875 11.7929,-42.26953 6.5391,-18.79688 18.918,-62.35156 -16.8125,-106.72266 7.7031,17.75 5.1367,29.54297 5.2539,31.52735 0,1.98828 -3.5039,42.03906 -3.2695,51.96484 0.1172,12.72656 3.0352,34.5625 3.0352,34.5625 0,0 -0.8165,2.68359 -2.5704,0.11719 -1.1679,-1.75391 -4.0859,-30.01172 -21.4843,-46.47266 -16.2305,-15.29687 -29.3086,-26.85937 -32.9297,-33.39844 0.2344,11.67579 7.3594,28.375 12.9609,37.60157 5.6055,9.10547 28.6094,39.23437 33.9805,49.39062 5.2539,10.16016 10.043,22.30469 10.043,23.70703"
         fill-opacity="1"
         fill-rule="nonzero"
         id="path56-7-0-3" /><path
         fill="#ffffff"
         d="m 652.39063,179.82031 c 4.6719,10.39063 5.4883,18.6836 5.4883,24.05469 0,2.33594 -0.1172,4.08594 -0.2344,5.25391 l -0.9336,11.67578 -2.4531,41.80468 c 0,0 1.8672,21.25 2.6875,30.47657 -1.9883,-8.99219 -6.6563,-29.89453 -21.0196,-43.32032 0,-0.11718 -8.875,-8.52734 -8.875,-8.52734 -11.6757,-10.97656 -20.8984,-19.61719 -23.7031,-24.63672 l -3.0351,0.81641 c 0.2343,11.44531 7.0039,28.25781 13.1953,38.41797 l 13.3125,19.14843 c 8.289,11.32813 17.5156,24.28907 20.5508,30.12891 5.4882,10.39063 9.8086,21.83594 9.9257,23.11719 l 3.2696,0.23437 c 0,-0.23437 5.2539,-23.58593 11.6758,-42.15234 14.1289,-40.16797 8.4062,-76.60156 -17.1641,-108.24219 z m 5.7226,120.15235 c 1.6329,-0.23438 2.2188,-1.98438 2.3321,-2.33594 0,-1.28516 -3.0352,-35.02735 -3.0352,-35.02735 l 2.5703,-41.45312 0.6993,-10.51172 c 0.1171,-1.75 0.3515,-3.96875 0.3515,-6.65234 0,-3.85547 -0.8164,-9.22657 -2.3359,-15.06641 11.6758,17.28516 17.8672,35.96484 17.8672,56.05078 0,12.96094 -2.4532,26.38672 -7.3594,40.28516 -4.668,13.42578 -8.6406,29.07422 -10.5078,37.01172 -1.9844,-5.13672 -5.1367,-12.49219 -8.4063,-18.67969 -3.2695,-6.07422 -12.6133,-19.03516 -20.7851,-30.47656 l -13.1953,-19.03516 c -5.1368,-8.28906 -10.3907,-21.01562 -12.1446,-31.41016 4.3203,5.25782 10.9766,11.79688 20.668,21.01954 l 8.9922,8.28906 c 13.6601,12.96484 18.0976,33.28125 19.9687,41.92187 l 1.1641,4.20313 c 0.9375,1.40234 1.9883,1.98437 3.1562,1.86719"
         fill-opacity="1"
         fill-rule="nonzero"
         id="path57-4-4-4" /><path
         fill="#ffffff"
         d="m 647.14063,249.0625 c 0,0 -2.6875,-6.30859 -0.9336,-32.23047 1.75,-26.03906 1.9844,-61.41797 -38.6523,-84.30469 10.3945,16.69532 12.0273,19.61719 15.414,33.27735 3.3867,13.54687 7.3594,35.38281 13.0781,47.64062 2.336,6.07422 3.9727,10.74219 2.9219,11.32813 -1.0508,0.69922 -1.5195,-0.46875 -2.3359,-2.45313 -0.8164,-2.10156 -9.5742,-20.43359 -26.2735,-31.76172 -16.9296,-11.4414 -32.1093,-22.88281 -37.9492,-34.32812 2.8008,21.48437 11.211,28.95703 19.6172,39.58594 9.1094,11.55859 41.5703,35.3789 47.1758,43.20312 5.7226,7.94141 7.9414,10.04297 7.9414,10.04297"
         fill-opacity="1"
         fill-rule="nonzero"
         id="path58-9-4-3" /><path
         fill="#ffffff"
         d="m 606.15233,133.46484 c 10.5078,16.8125 12.0274,19.5 15.2969,32.69532 l 2.4531,10.74218 c 2.918,12.96094 6.1875,27.67188 10.625,37.2461 0.2344,0.58593 0.6992,1.7539 1.0508,2.6875 -3.7344,-6.77344 -11.5586,-19.03125 -24.4024,-27.67578 -16,-10.74219 -31.6445,-22.41797 -37.3671,-33.625 l -3.0352,0.93359 c 2.5664,19.03125 9.3398,27.32031 16.6953,36.19531 l 3.2695,4.08985 c 4.9063,6.30468 16.1133,15.64453 26.7422,24.7539 9.2227,7.70703 17.8633,14.94531 20.4336,18.56641 l 8.1719,10.15625 2.5703,-1.86719 c -0.1172,0 -2.5703,-6.53906 -0.8164,-31.41016 1.4024,-21.48437 4.0859,-61.30468 -39.4687,-85.82421 z m 33.6289,92.59766 c 0.6992,-0.35156 1.0508,-1.05469 1.0508,-2.10547 0,-1.86719 -1.0508,-5.13672 -3.2695,-11.08984 -4.3203,-9.22657 -7.7071,-24.52344 -10.5078,-36.66797 l -2.5704,-10.85938 c -2.8007,-11.4414 -4.7851,-15.8789 -11.0937,-26.39062 25.6914,17.75 31.7617,40.87109 31.7617,63.40625 0,4.90625 -0.2344,9.6914 -0.4687,14.36328 -0.4649,6.53906 -0.5821,11.79297 -0.5821,15.99609 0,4.67188 0.1172,7.82422 0.4688,10.39063 -1.9883,-2.44922 -3.9727,-4.90235 -3.9727,-4.90235 -2.8008,-3.85546 -11.2109,-10.97656 -21.0156,-19.15234 -10.1602,-8.52344 -21.6055,-18.21484 -26.3906,-24.16797 l -3.2696,-4.20312 c -6.0742,-7.47266 -11.3281,-14.36328 -14.3632,-26.97657 7.125,8.99219 18.6836,17.98438 33.8632,28.14454 17.2813,11.79296 25.6875,30.9414 25.8047,31.05859 0.7032,1.86719 1.168,3.15234 2.4532,3.50391 l 0.6992,0.35156 1.4023,-0.70313"
         fill-opacity="1"
         fill-rule="nonzero"
         id="path59-3-9-5" /><path
         fill="#ffffff"
         d="m 615.49223,181.10547 c 0,0 -5.836,-27.20703 -16.8125,-43.20703 -10.7422,-15.9961 -32.9297,-29.77344 -56.0508,-36.3125 8.1758,6.53906 13.1953,12.49219 16.1172,17.28125 2.9179,4.78906 21.0156,31.52734 29.1914,39.93359 8.289,8.52734 21.6015,15.88281 27.5547,22.30469"
         fill-opacity="1"
         fill-rule="nonzero"
         id="path60-5-8-2" /></g><path
       id="path71-1-5-1"
       style="display:inline;fill:#ffffff;fill-rule:evenodd;stroke-width:2.26958"
       d="M 1336.5322,93.51709 A 224.31758,224.31758 0 0 0 1112.2148,317.83447 224.31758,224.31758 0 0 0 1336.5322,542.15186 224.31758,224.31758 0 0 0 1560.8496,317.83447 224.31758,224.31758 0 0 0 1336.5322,93.51709 Z m -40.0737,12.51416 a 0.58352688,0.58352688 0 0 1 0.5347,0.27246 l 1.1352,1.81641 a 4.0466712,4.0466712 0 0 0 1.2861,1.28613 l 1.8179,1.13525 a 0.58352688,0.58352688 0 0 1 0,0.99024 l -1.8164,1.13525 a 4.0466712,4.0466712 0 0 0 -1.2861,1.2876 l -1.1353,1.81641 a 0.58353015,0.58353015 0 0 1 -0.9902,0 l -1.1353,-1.81641 a 4.0467644,4.0467644 0 0 0 -1.2876,-1.28613 l -1.8164,-1.13526 a 0.58353015,0.58353015 0 0 1 0,-0.98877 l 1.8164,-1.13671 a 4.0466712,4.0466712 0 0 0 1.2862,-1.28614 l 1.1352,-1.81787 a 0.58352688,0.58352688 0 0 1 0.4556,-0.27246 z m 74.8008,6.60791 a 0.54123622,0.54123622 0 0 1 0.4702,0.29736 l 0.8921,1.77686 a 3.7533919,3.7533919 0 0 0 1.0766,1.29785 l 1.5806,1.20557 a 0.54123622,0.54123622 0 0 1 -0.085,0.91406 l -1.7754,0.89209 a 3.7533919,3.7533919 0 0 0 -1.2993,1.07666 l -1.2055,1.58057 a 0.54123925,0.54123925 0 0 1 -0.9141,-0.085 l -0.8921,-1.7754 a 3.7534783,3.7534783 0 0 0 -1.0766,-1.29931 l -1.5806,-1.20557 a 0.54123925,0.54123925 0 0 1 0.085,-0.91406 l 1.7754,-0.89209 a 3.7533919,3.7533919 0 0 0 1.2994,-1.07666 l 1.2055,-1.58057 a 0.54123622,0.54123622 0 0 1 0.4439,-0.2124 z m -32.2354,14.97217 a 1.0156951,1.0156951 0 0 1 0.9273,0.47754 l 1.9687,3.16845 a 7.0436927,7.0436927 0 0 0 2.2324,2.24415 l 3.1568,1.98632 a 1.0156951,1.0156951 0 0 1 0,1.72266 l -3.167,1.96728 a 7.0436927,7.0436927 0 0 0 -2.2456,2.23389 l -1.9864,3.15674 a 1.0157008,1.0157008 0 0 1 -1.7211,-0.006 l -1.9688,-3.16699 a 7.0438549,7.0438549 0 0 0 -2.2324,-2.24561 l -3.1568,-1.98486 a 1.0157008,1.0157008 0 0 1 0,-1.72266 l 3.167,-1.96875 a 7.0436927,7.0436927 0 0 0 2.2456,-2.23242 l 1.9849,-3.15674 a 1.0156951,1.0156951 0 0 1 0.7954,-0.47314 z m 109.5015,9.11572 a 0.8517385,0.8517385 0 0 1 0.8452,0.89942 l -0.1729,3.12304 a 5.9066785,5.9066785 0 0 0 0.4527,2.61621 l 1.2114,2.88282 a 0.8517385,0.8517385 0 0 1 -0.832,1.18066 l -3.1231,-0.17432 a 5.9066785,5.9066785 0 0 0 -2.6162,0.45264 l -2.8828,1.21289 a 0.85174325,0.85174325 0 0 1 -1.1807,-0.83203 l 0.1744,-3.12305 a 5.9068145,5.9068145 0 0 0 -0.4527,-2.61621 l -1.2129,-2.88281 a 0.85174325,0.85174325 0 0 1 0.8321,-1.18067 l 3.123,0.17286 a 5.9066785,5.9066785 0 0 0 2.6162,-0.45264 l 2.8828,-1.21143 a 0.8517385,0.8517385 0 0 1 0.3355,-0.0674 z m -188.8814,1.25684 a 0.4560726,0.4560726 0 0 1 0.4175,0.21386 l 0.8877,1.41944 a 3.1627949,3.1627949 0 0 0 1.0064,1.00488 l 1.4194,0.8877 a 0.4560726,0.4560726 0 0 1 0,0.77343 l -1.4194,0.8877 a 3.1627949,3.1627949 0 0 0 -1.0049,1.00635 l -0.8877,1.41943 a 0.45607516,0.45607516 0 0 1 -0.7735,0 l -0.8877,-1.41943 a 3.1628677,3.1628677 0 0 0 -1.0063,-1.00489 l -1.4194,-0.88769 a 0.45607516,0.45607516 0 0 1 0,-0.77344 l 1.4194,-0.88769 a 3.1627949,3.1627949 0 0 0 1.0049,-1.00489 l 0.8877,-1.4209 a 0.4560726,0.4560726 0 0 1 0.3559,-0.21386 z m -39.3193,6.32666 a 0.51786863,0.51786863 0 0 1 0.4995,0.49072 l 0.098,1.89844 a 3.5913411,3.5913411 0 0 0 0.4438,1.55273 l 0.9199,1.66406 a 0.51786863,0.51786863 0 0 1 -0.4262,0.76758 l -1.8985,0.0982 a 3.5913411,3.5913411 0 0 0 -1.5527,0.44384 l -1.6641,0.91993 a 0.51787153,0.51787153 0 0 1 -0.7676,-0.42627 l -0.098,-1.89844 a 3.5914238,3.5914238 0 0 0 -0.4439,-1.55273 l -0.9199,-1.66407 a 0.51787153,0.51787153 0 0 1 0.4263,-0.76758 l 1.8984,-0.0981 a 3.5913411,3.5913411 0 0 0 1.5528,-0.44385 l 1.664,-0.91992 a 0.51786863,0.51786863 0 0 1 0.2681,-0.0644 z m 185.3672,5.33349 a 0.54123623,0.54123623 0 0 1 0.4951,0.25342 l 1.0532,1.68457 a 3.7533919,3.7533919 0 0 0 1.1939,1.19385 l 1.686,1.05176 a 0.54123623,0.54123623 0 0 1 0,0.91845 l -1.686,1.05323 a 3.7533919,3.7533919 0 0 0 -1.1924,1.19384 l -1.0532,1.68604 a 0.54123926,0.54123926 0 0 1 -0.917,0 l -1.0547,-1.68457 a 3.7534783,3.7534783 0 0 0 -1.1924,-1.19385 l -1.686,-1.05322 a 0.54123926,0.54123926 0 0 1 0,-0.91699 l 1.6845,-1.05469 a 3.7533919,3.7533919 0 0 0 1.1939,-1.19238 l 1.0517,-1.68604 a 0.54123623,0.54123623 0 0 1 0.4234,-0.25342 z m -119.2925,9.7251 a 1.0757779,1.0757779 0 0 1 0.9829,0.50684 l 2.0845,3.35449 a 7.4603576,7.4603576 0 0 0 2.3657,2.37744 l 3.3428,2.10352 a 1.0757779,1.0757779 0 0 1 0,1.82373 l -3.3545,2.08447 a 7.4603576,7.4603576 0 0 0 -2.3789,2.36572 l -2.1021,3.34278 a 1.0757839,1.0757839 0 0 1 -1.8252,-0.004 l -2.0844,-3.35449 a 7.460529,7.460529 0 0 0 -2.3643,-2.37891 l -3.3442,-2.10205 a 1.0757839,1.0757839 0 0 1 0,-1.82519 l 3.3559,-2.08448 a 7.4603576,7.4603576 0 0 0 2.3775,-2.36425 l 2.1035,-3.34424 a 1.0757779,1.0757779 0 0 1 0.8408,-0.50098 z m 37.1938,0.24024 a 0.56035336,0.56035336 0 0 1 0.5142,0.2622 l 1.0899,1.74463 a 3.8859664,3.8859664 0 0 0 1.2363,1.23486 l 1.7446,1.08985 a 0.56035336,0.56035336 0 0 1 0,0.95068 l -1.7446,1.09131 a 3.8859664,3.8859664 0 0 0 -1.2349,1.23486 l -1.0898,1.74463 a 0.56035651,0.56035651 0 0 1 -0.9507,0 l -1.0913,-1.74316 a 3.8860559,3.8860559 0 0 0 -1.2349,-1.23633 l -1.7446,-1.08984 a 0.56035651,0.56035651 0 0 1 0,-0.95069 l 1.7446,-1.08984 a 3.8859664,3.8859664 0 0 0 1.2349,-1.23633 l 1.0898,-1.74463 a 0.56035336,0.56035336 0 0 1 0.4365,-0.2622 z m 135.0015,3.35449 a 0.51036661,0.51036661 0 0 1 0.4893,0.48779 l 0.085,1.87207 a 3.5393158,3.5393158 0 0 0 0.4278,1.53223 l 0.8965,1.64502 a 0.51036661,0.51036661 0 0 1 -0.4263,0.75439 l -1.8721,0.085 a 3.5393158,3.5393158 0 0 0 -1.5322,0.42774 l -1.645,0.89502 a 0.51036948,0.51036948 0 0 1 -0.7544,-0.42481 l -0.085,-1.87207 a 3.5393973,3.5393973 0 0 0 -0.4277,-1.53223 l -0.895,-1.64501 a 0.51036948,0.51036948 0 0 1 0.4248,-0.7544 l 1.872,-0.085 a 3.5393158,3.5393158 0 0 0 1.5323,-0.42773 l 1.645,-0.89502 a 0.51036661,0.51036661 0 0 1 0.2651,-0.063 z m -263.918,4.15429 c 14.7696,36.34586 42.2464,82.07188 78.5845,122.5752 l 8.7012,-6.29297 -35.5078,-108.47314 92.1928,67.28906 92.1915,-67.28906 -35.5079,108.47314 92.4859,66.88623 -114.1362,-0.24902 -8.8213,27.35303 c 58.4282,44.8569 109.228,56.58673 126.3178,31.09863 5.8294,-12.7611 7.4553,-23.68693 0.095,-51.10693 26.9961,48.404 30.0721,73.94541 16.4341,91.11181 -20.0189,25.1981 -79.8435,-2.67371 -146.9399,-58.41211 l -22.1192,68.58399 -35.0332,-108.62842 -114.1376,0.24902 76.4765,-55.3081 c -38.7995,-48.20817 -65.3377,-96.80397 -71.2764,-127.86036 z m 25.7081,4.00489 a 0.91183359,0.91183359 0 0 1 0.788,0.50976 l 1.4766,3.0044 a 6.3234288,6.3234288 0 0 0 1.7959,2.20312 l 2.644,2.05371 a 0.91183359,0.91183359 0 0 1 -0.1567,1.53809 l -3.0044,1.47803 a 6.3234288,6.3234288 0 0 0 -2.2031,1.7959 l -2.0537,2.64404 a 0.91183866,0.91183866 0 0 1 -1.5381,-0.15674 l -1.478,-3.00439 a 6.3235744,6.3235744 0 0 0 -1.7959,-2.20459 l -2.6441,-2.05225 a 0.91183866,0.91183866 0 0 1 0.1568,-1.53955 l 3.0044,-1.47656 a 6.3234288,6.3234288 0 0 0 2.2045,-1.7959 l 2.0523,-2.64405 a 0.91183359,0.91183359 0 0 1 0.7515,-0.35302 z m 146.477,1.125 a 1.9926298,1.9926298 0 0 1 1.5689,0.90967 l 3.9653,6.14941 a 13.818589,13.818589 0 0 0 4.4531,4.33008 l 6.2578,3.79101 a 1.992641,1.992641 0 0 1 0.047,3.3794 l -6.148,3.96533 a 13.818907,13.818907 0 0 0 -4.3315,4.45312 l -3.7895,6.25782 a 1.992641,1.992641 0 0 1 -3.3794,0.0469 l -3.9654,-6.14795 a 13.818589,13.818589 0 0 0 -4.4531,-4.33154 l -6.2578,-3.79102 a 1.9926298,1.9926298 0 0 1 -0.048,-3.37793 l 6.1495,-3.96533 a 13.818589,13.818589 0 0 0 4.33,-4.45312 l 3.7911,-6.25781 a 1.9926298,1.9926298 0 0 1 1.8105,-0.95801 z m 79.7256,15.17285 a 0.99416035,0.99416035 0 0 1 0.9346,1.09424 l -0.375,3.63134 a 6.8943525,6.8943525 0 0 0 0.3823,3.07618 l 1.2524,3.42773 a 0.99416035,0.99416035 0 0 1 -1.0356,1.33008 l -3.6314,-0.375 a 6.8943525,6.8943525 0 0 0 -3.0747,0.38232 l -3.4292,1.25244 a 0.99416595,0.99416595 0 0 1 -1.33,-1.03564 l 0.375,-3.62988 a 6.8945115,6.8945115 0 0 0 -0.3824,-3.07617 l -1.2524,-3.42774 a 0.99416595,0.99416595 0 0 1 1.0356,-1.33154 l 3.6314,0.37646 a 6.8943525,6.8943525 0 0 0 3.0747,-0.38232 l 3.4292,-1.25391 a 0.99416035,0.99416035 0 0 1 0.3955,-0.0586 z m 41.3584,9.55371 a 1.010186,1.010186 0 0 1 1.0151,0.91406 l 0.3545,3.69287 a 7.0054878,7.0054878 0 0 0 0.9976,2.98682 l 1.9365,3.1626 a 1.0101917,1.0101917 0 0 1 -0.7661,1.53369 l -3.6914,0.35449 a 7.0056494,7.0056494 0 0 0 -2.9868,0.99756 l -3.1641,1.93652 a 1.0101917,1.0101917 0 0 1 -1.5322,-0.76611 l -0.3545,-3.69141 a 7.0054878,7.0054878 0 0 0 -0.999,-2.98681 l -1.9351,-3.16407 a 1.010186,1.010186 0 0 1 0.7646,-1.53369 l 3.6929,-0.35449 a 7.0054878,7.0054878 0 0 0 2.9868,-0.99756 l 3.1641,-1.93506 a 1.010186,1.010186 0 0 1 0.5171,-0.14941 z m -315.4204,1.29932 a 0.47485488,0.47485488 0 0 1 0.1889,0.0337 l 1.6202,0.64453 a 3.2930473,3.2930473 0 0 0 1.4633,0.22412 l 1.7373,-0.12891 a 0.47485488,0.47485488 0 0 1 0.4776,0.64893 l -0.6445,1.62012 a 3.2930473,3.2930473 0 0 0 -0.2256,1.46338 l 0.1303,1.73877 a 0.47485755,0.47485755 0 0 1 -0.6489,0.47607 l -1.6201,-0.64453 a 3.2931231,3.2931231 0 0 0 -1.4634,-0.22559 l -1.7388,0.13037 a 0.47485755,0.47485755 0 0 1 -0.476,-0.64892 l 0.6445,-1.62012 a 3.2930473,3.2930473 0 0 0 0.2241,-1.46338 l -0.1289,-1.73877 a 0.47485488,0.47485488 0 0 1 0.46,-0.50976 z m 161.4302,10.24072 a 0.56035336,0.56035336 0 0 1 0.5126,0.26221 l 1.0899,1.74462 a 3.8859664,3.8859664 0 0 0 1.2363,1.23487 l 1.7447,1.08984 a 0.56035336,0.56035336 0 0 1 0,0.95069 l -1.7447,1.0913 a 3.8859664,3.8859664 0 0 0 -1.2348,1.23487 l -1.0899,1.74463 a 0.56035651,0.56035651 0 0 1 -0.9507,0 l -1.0913,-1.74463 a 3.8860559,3.8860559 0 0 0 -1.2348,-1.23487 l -1.7447,-1.08984 a 0.56035651,0.56035651 0 0 1 0,-0.95068 l 1.7447,-1.08985 a 3.8859664,3.8859664 0 0 0 1.2348,-1.23633 l 1.0899,-1.74462 a 0.56035336,0.56035336 0 0 1 0.438,-0.26221 z m -152.6485,14.1709 a 0.97259374,0.97259374 0 0 1 0.6987,0.31347 l 2.42,2.62647 a 6.7447914,6.7447914 0 0 0 2.5034,1.71094 l 3.3252,1.30078 a 0.97259922,0.97259922 0 0 1 0.3047,1.62158 l -2.6265,2.41992 a 6.7449471,6.7449471 0 0 0 -1.7109,2.50195 l -1.3023,3.32666 a 0.97259922,0.97259922 0 0 1 -1.6201,0.30323 l -2.4199,-2.62647 a 6.7447914,6.7447914 0 0 0 -2.5034,-1.71093 l -3.3252,-1.30079 a 0.97259374,0.97259374 0 0 1 -0.3047,-1.62158 l 2.6264,-2.41846 a 6.7447914,6.7447914 0 0 0 1.711,-2.50341 l 1.3008,-3.3252 a 0.97259374,0.97259374 0 0 1 0.9228,-0.61816 z m 249.0674,1.55127 a 0.53651969,0.53651969 0 0 1 0.5142,0.51269 l 0.088,1.96729 a 3.7206835,3.7206835 0 0 0 0.4497,1.61133 l 0.9419,1.72998 a 0.53651969,0.53651969 0 0 1 -0.4468,0.79248 l -1.9673,0.0893 a 3.7206835,3.7206835 0 0 0 -1.6113,0.44971 l -1.73,0.94189 a 0.5365227,0.5365227 0 0 1 -0.7925,-0.44677 l -0.089,-1.96875 a 3.7207691,3.7207691 0 0 0 -0.4497,-1.61133 l -0.9419,-1.72998 a 0.5365227,0.5365227 0 0 1 0.4468,-0.79248 l 1.9688,-0.0894 a 3.7206835,3.7206835 0 0 0 1.6113,-0.44824 l 1.73,-0.9419 a 0.53651969,0.53651969 0 0 1 0.2783,-0.0659 z m 100.5645,6.27832 a 0.58583442,0.58583442 0 0 1 0.561,0.5581 l 0.098,2.14893 a 4.0626737,4.0626737 0 0 0 0.4908,1.75928 l 1.0283,1.88964 a 0.58583442,0.58583442 0 0 1 -0.4878,0.86426 l -2.1489,0.0981 a 4.0626737,4.0626737 0 0 0 -1.7593,0.49072 l -1.8897,1.02832 a 0.58583771,0.58583771 0 0 1 -0.8657,-0.48779 l -0.097,-2.14893 a 4.0627672,4.0627672 0 0 0 -0.4907,-1.75928 l -1.0283,-1.88964 a 0.58583771,0.58583771 0 0 1 0.4878,-0.86426 l 2.1489,-0.0982 a 4.0626737,4.0626737 0 0 0 1.7593,-0.49072 l 1.8896,-1.02832 a 0.58583442,0.58583442 0 0 1 0.3033,-0.0703 z m -55.3624,3.11865 a 0.53651969,0.53651969 0 0 1 0.5142,0.51123 l 0.088,1.96875 a 3.7206835,3.7206835 0 0 0 0.4497,1.61133 l 0.9419,1.72998 a 0.53651969,0.53651969 0 0 1 -0.4468,0.79248 l -1.9673,0.0879 a 3.7206835,3.7206835 0 0 0 -1.6113,0.44971 l -1.73,0.94189 a 0.5365227,0.5365227 0 0 1 -0.7925,-0.44678 l -0.089,-1.96728 a 3.7207691,3.7207691 0 0 0 -0.4497,-1.61133 l -0.9419,-1.72998 a 0.5365227,0.5365227 0 0 1 0.4468,-0.79248 l 1.9687,-0.0894 a 3.7206835,3.7206835 0 0 0 1.6099,-0.4497 l 1.73,-0.9419 a 0.53651969,0.53651969 0 0 1 0.2797,-0.0644 z m -324.2563,7.51318 a 0.53417447,0.53417447 0 0 1 0.2109,0.0381 l 1.8223,0.7251 a 3.7044197,3.7044197 0 0 0 1.6465,0.25195 l 1.9556,-0.14502 a 0.53417447,0.53417447 0 0 1 0.5361,0.72949 l -0.7251,1.82227 a 3.7044197,3.7044197 0 0 0 -0.252,1.64648 l 0.1451,1.95557 a 0.53417747,0.53417747 0 0 1 -0.7295,0.53613 l -1.8223,-0.7251 a 3.704505,3.704505 0 0 0 -1.6465,-0.25195 l -1.9556,0.14502 a 0.53417747,0.53417747 0 0 1 -0.5361,-0.72949 l 0.7251,-1.82227 a 3.7044197,3.7044197 0 0 0 0.2534,-1.64648 l -0.1465,-1.95557 a 0.53417447,0.53417447 0 0 1 0.5186,-0.57422 z m 58.207,2.74805 a 0.97259374,0.97259374 0 0 1 0.3868,0.0586 l 3.353,1.22754 a 6.7447914,6.7447914 0 0 0 3.0088,0.375 l 3.5522,-0.36474 a 0.97259922,0.97259922 0 0 1 1.0137,1.30224 l -1.229,3.35303 a 6.7449471,6.7449471 0 0 0 -0.375,3.00879 l 0.3647,3.55225 a 0.97259922,0.97259922 0 0 1 -1.3008,1.0122 l -3.3544,-1.22754 a 6.7447914,6.7447914 0 0 0 -3.0088,-0.375 l -3.5523,0.36475 a 0.97259374,0.97259374 0 0 1 -1.0122,-1.30225 l 1.2276,-3.35302 a 6.7447914,6.7447914 0 0 0 0.3764,-3.00879 l -0.3662,-3.55225 a 0.97259374,0.97259374 0 0 1 0.9155,-1.0708 z m 232.2159,6.33691 a 1.8913237,1.8913237 0 0 1 1.9423,1.6626 l 0.8365,6.89356 a 13.116046,13.116046 0 0 0 2.0068,5.54443 l 3.772,5.83154 a 1.8913343,1.8913343 0 0 1 -1.3609,2.90479 l -6.8935,0.83496 a 13.116348,13.116348 0 0 0 -5.5445,2.0083 l -5.8315,3.77051 a 1.8913343,1.8913343 0 0 1 -2.9048,-1.36084 l -0.8349,-6.89356 a 13.116046,13.116046 0 0 0 -2.0069,-5.54443 l -3.772,-5.83008 a 1.8913237,1.8913237 0 0 1 1.3609,-2.90478 l 6.8935,-0.83643 a 13.116046,13.116046 0 0 0 5.5445,-2.00684 l 5.8301,-3.77197 a 1.8913237,1.8913237 0 0 1 0.9624,-0.30176 z m 53.1123,3.74414 a 1.010186,1.010186 0 0 1 1.0151,0.9126 l 0.3545,3.69287 a 7.0054878,7.0054878 0 0 0 0.9975,2.98682 l 1.9351,3.16406 a 1.0101917,1.0101917 0 0 1 -0.7646,1.53223 l -3.6915,0.35449 a 7.0056494,7.0056494 0 0 0 -2.9882,0.99756 l -3.1626,1.93652 a 1.0101917,1.0101917 0 0 1 -1.5337,-0.76611 l -0.3545,-3.69141 a 7.0054878,7.0054878 0 0 0 -0.9976,-2.98681 l -1.935,-3.16407 a 1.010186,1.010186 0 0 1 0.7646,-1.53222 l 3.6914,-0.35449 a 7.0054878,7.0054878 0 0 0 2.9883,-0.99903 l 3.1626,-1.93506 a 1.010186,1.010186 0 0 1 0.5186,-0.14795 z m -360.8658,14.042 a 1.8585097,1.8585097 0 0 1 0.7398,0.10986 l 6.4087,2.34668 a 12.888486,12.888486 0 0 0 5.748,0.71777 l 6.7881,-0.69873 a 1.8585201,1.8585201 0 0 1 1.9351,2.48731 l -2.3453,6.40869 a 12.888782,12.888782 0 0 0 -0.7177,5.74951 l 0.6972,6.78809 a 1.8585201,1.8585201 0 0 1 -2.4873,1.93506 l -6.4072,-2.34668 a 12.888486,12.888486 0 0 0 -5.7495,-0.71778 l -6.7881,0.69873 a 1.8585097,1.8585097 0 0 1 -1.935,-2.48877 l 2.3452,-6.40722 a 12.888486,12.888486 0 0 0 0.7177,-5.74952 l -0.6972,-6.78808 a 1.8585097,1.8585097 0 0 1 1.7475,-2.04492 z m 52.6714,2.48584 a 0.56126976,0.56126976 0 0 1 0.2212,0.0395 l 1.9146,0.76172 a 3.8923215,3.8923215 0 0 0 1.7299,0.26513 l 2.0552,-0.15381 a 0.56126976,0.56126976 0 0 1 0.5625,0.76758 l -0.7617,1.91455 a 3.8923215,3.8923215 0 0 0 -0.2651,1.72998 l 0.1538,2.05518 a 0.56127291,0.56127291 0 0 1 -0.7676,0.5625 l -1.9146,-0.76172 a 3.8924111,3.8924111 0 0 0 -1.7299,-0.26514 l -2.0552,0.15381 a 0.56127291,0.56127291 0 0 1 -0.5625,-0.76758 l 0.7617,-1.91455 a 3.8923215,3.8923215 0 0 0 0.2651,-1.72998 l -0.1538,-2.05517 a 0.56126976,0.56126976 0 0 1 0.5464,-0.60205 z m 344.5005,15.51855 a 1.3353853,1.3353853 0 0 1 1.3418,1.2085 l 0.4688,4.88086 a 9.2606962,9.2606962 0 0 0 1.3198,3.94775 l 2.5591,4.18213 a 1.3353927,1.3353927 0 0 1 -1.0122,2.02734 l -4.8809,0.46729 a 9.2609093,9.2609093 0 0 0 -3.9478,1.31982 l -4.1821,2.55909 a 1.3353927,1.3353927 0 0 1 -2.0273,-1.01221 l -0.4673,-4.88086 a 9.2606962,9.2606962 0 0 0 -1.3198,-3.94776 l -2.5591,-4.18212 a 1.3353853,1.3353853 0 0 1 1.0122,-2.02735 l 4.8794,-0.46728 a 9.2606962,9.2606962 0 0 0 3.9492,-1.31983 l 4.1821,-2.55908 a 1.3353853,1.3353853 0 0 1 0.6841,-0.19629 z m -33.8393,5.63233 a 0.51701405,0.51701405 0 0 1 0.4951,0.49218 l 0.086,1.89698 a 3.5854148,3.5854148 0 0 0 0.4321,1.55273 l 0.9082,1.66699 a 0.51701405,0.51701405 0 0 1 -0.4306,0.76319 l -1.897,0.0864 a 3.5854148,3.5854148 0 0 0 -1.5527,0.43213 l -1.667,0.9082 a 0.51701695,0.51701695 0 0 1 -0.7632,-0.43066 l -0.086,-1.89551 a 3.5854973,3.5854973 0 0 0 -0.4322,-1.55273 l -0.9082,-1.66699 a 0.51701695,0.51701695 0 0 1 0.4307,-0.76465 l 1.897,-0.085 a 3.5854148,3.5854148 0 0 0 1.5512,-0.4336 l 1.6685,-0.9082 a 0.51701405,0.51701405 0 0 1 0.2681,-0.0615 z m -261.0777,2.22802 a 0.58690297,0.58690297 0 0 1 0.2329,0.041 l 2.001,0.79687 a 4.0700839,4.0700839 0 0 0 1.8091,0.27832 l 2.1489,-0.16113 a 0.58690297,0.58690297 0 0 1 0.5889,0.80274 l -0.7969,2.00244 a 4.0700839,4.0700839 0 0 0 -0.2769,1.80761 l 0.1597,2.14893 a 0.58690626,0.58690626 0 0 1 -0.8013,0.58887 l -2.0024,-0.79688 a 4.0701776,4.0701776 0 0 0 -1.8091,-0.27685 l -2.1489,0.15966 a 0.58690626,0.58690626 0 0 1 -0.5889,-0.80126 l 0.7969,-2.00245 a 4.0700839,4.0700839 0 0 0 0.2769,-1.80908 l -0.1597,-2.14892 a 0.58690297,0.58690297 0 0 1 0.5698,-0.62989 z m -47.5254,3.99317 a 0.97259374,0.97259374 0 0 1 0.3867,0.0571 l 3.3545,1.22754 a 6.7447914,6.7447914 0 0 0 3.0074,0.37646 l 3.5522,-0.36621 a 0.97259922,0.97259922 0 0 1 1.0137,1.30225 l -1.2276,3.35302 a 6.7449471,6.7449471 0 0 0 -0.3764,3.00879 l 0.3662,3.55225 a 0.97259922,0.97259922 0 0 1 -1.3023,1.01367 l -3.353,-1.22754 a 6.7447914,6.7447914 0 0 0 -3.0088,-0.37646 l -3.5522,0.36621 a 0.97259374,0.97259374 0 0 1 -1.0137,-1.30225 l 1.2275,-3.35303 a 6.7447914,6.7447914 0 0 0 0.3765,-3.00879 l -0.3647,-3.55224 a 0.97259374,0.97259374 0 0 1 0.914,-1.0708 z m 263.7832,8.95166 a 0.5044364,0.5044364 0 0 1 0.4834,0.48193 l 0.084,1.8501 a 3.4981906,3.4981906 0 0 0 0.4234,1.51465 l 0.8847,1.62597 a 0.5044364,0.5044364 0 0 1 -0.4189,0.74561 l -1.8516,0.0835 a 3.4981906,3.4981906 0 0 0 -1.5146,0.42187 l -1.626,0.88623 a 0.50443923,0.50443923 0 0 1 -0.7456,-0.42041 l -0.084,-1.8501 a 3.4982711,3.4982711 0 0 0 -0.4219,-1.51465 l -0.8862,-1.62597 a 0.50443923,0.50443923 0 0 1 0.4204,-0.74561 l 1.8501,-0.0835 a 3.4981906,3.4981906 0 0 0 1.5146,-0.42334 l 1.6275,-0.88477 a 0.5044364,0.5044364 0 0 1 0.2607,-0.0615 z m 68.0054,14.53857 a 2.1058508,2.1058508 0 0 1 1.2949,0.51709 l 5.8272,5.08154 a 14.603759,14.603759 0 0 0 5.792,3.09082 l 7.4648,2.01563 a 2.1058626,2.1058626 0 0 1 1.0386,3.41748 l -5.0816,5.82715 a 14.604095,14.604095 0 0 0 -3.0922,5.79199 l -2.0142,7.46484 a 2.1058626,2.1058626 0 0 1 -3.4175,1.03858 l -5.8271,-5.08154 a 14.603759,14.603759 0 0 0 -5.792,-3.09229 l -7.4649,-2.01416 a 2.1058508,2.1058508 0 0 1 -1.0385,-3.41748 l 5.0815,-5.82715 a 14.603759,14.603759 0 0 0 3.0908,-5.79199 l 2.0156,-7.46484 a 2.1058508,2.1058508 0 0 1 2.1226,-1.55567 z m -388.8633,3.16699 a 0.51863493,0.51863493 0 0 1 0.1392,0.0205 l 1.8325,0.51416 a 3.5966553,3.5966553 0 0 0 1.6157,0.0762 l 1.8736,-0.33984 a 0.51863493,0.51863493 0 0 1 0.5918,0.65039 l -0.5157,1.83398 a 3.5966553,3.5966553 0 0 0 -0.076,1.61426 l 0.3398,1.87354 a 0.51863784,0.51863784 0 0 1 -0.6504,0.59326 l -1.8325,-0.51563 a 3.5967382,3.5967382 0 0 0 -1.6157,-0.0762 l -1.8736,0.33985 a 0.51863784,0.51863784 0 0 1 -0.5918,-0.65039 l 0.5157,-1.83399 a 3.5966553,3.5966553 0 0 0 0.076,-1.61426 l -0.3413,-1.87353 a 0.51863493,0.51863493 0 0 1 0.5127,-0.61231 z m 47.1636,7.20411 a 0.57334169,0.57334169 0 0 1 0.2256,0.0425 l 1.9512,0.79248 a 3.9760384,3.9760384 0 0 0 1.7636,0.28418 l 2.1006,-0.14209 a 0.57334169,0.57334169 0 0 1 0.5698,0.78808 l -0.7924,1.94971 a 3.9760384,3.9760384 0 0 0 -0.2842,1.76514 l 0.1421,2.10058 a 0.5733449,0.5733449 0 0 1 -0.7881,0.56983 l -1.9497,-0.79395 a 3.97613,3.97613 0 0 0 -1.7652,-0.28271 l -2.1006,0.14062 a 0.5733449,0.5733449 0 0 1 -0.5698,-0.78662 l 0.794,-1.95117 a 3.9760384,3.9760384 0 0 0 0.2827,-1.76514 l -0.1406,-2.09912 a 0.57334169,0.57334169 0 0 1 0.561,-0.6123 z m 212.8828,25.49414 a 1.0648158,1.0648158 0 0 1 0.8408,0.48193 l 2.1372,3.27393 a 7.3843376,7.3843376 0 0 0 2.3936,2.30127 l 3.3545,2.00537 a 1.0648218,1.0648218 0 0 1 0.037,1.80615 l -3.2739,2.13721 a 7.3845077,7.3845077 0 0 0 -2.3013,2.39355 l -2.0068,3.35449 a 1.0648218,1.0648218 0 0 1 -1.8047,0.0366 l -2.1372,-3.27392 a 7.3843376,7.3843376 0 0 0 -2.3936,-2.30127 l -3.3559,-2.00684 a 1.0648158,1.0648158 0 0 1 -0.035,-1.80469 l 3.2739,-2.1372 a 7.3843376,7.3843376 0 0 0 2.2998,-2.39356 l 2.0069,-3.35595 a 1.0648158,1.0648158 0 0 1 0.9653,-0.51709 z m 42.7896,6.56689 a 2.1303435,2.1303435 0 0 1 2.0551,1.69043 l 1.6143,7.65381 a 14.773613,14.773613 0 0 0 2.7949,6.0249 l 4.8018,6.17285 a 2.1303555,2.1303555 0 0 1 -1.2422,3.39258 l -7.6538,1.61426 a 14.773952,14.773952 0 0 0 -6.0235,2.79492 l -6.1743,4.80176 a 2.1303555,2.1303555 0 0 1 -3.3926,-1.24219 l -1.6128,-7.65381 a 14.773613,14.773613 0 0 0 -2.7949,-6.02344 l -4.8032,-6.17431 a 2.1303435,2.1303435 0 0 1 1.2422,-3.39258 l 7.6538,-1.61279 a 14.773613,14.773613 0 0 0 6.0249,-2.79492 l 6.1729,-4.80323 a 2.1303435,2.1303435 0 0 1 1.3374,-0.44824 z m -152.877,7.17188 a 0.99338376,0.99338376 0 0 1 1.0181,1.13964 l -0.542,3.60791 a 6.8889673,6.8889673 0 0 0 0.2417,3.08643 l 1.0928,3.48047 a 0.99338937,0.99338937 0 0 1 -1.0943,1.28027 l -3.6079,-0.54199 a 6.8891256,6.8891256 0 0 0 -3.0879,0.2417 l -3.479,1.09277 a 0.99338937,0.99338937 0 0 1 -1.2803,-1.09424 l 0.5406,-3.60791 a 6.8889673,6.8889673 0 0 0 -0.2403,-3.08642 l -1.0942,-3.48047 a 0.99338376,0.99338376 0 0 1 1.0957,-1.28027 l 3.6064,0.54199 a 6.8889673,6.8889673 0 0 0 3.0879,-0.2417 l 3.4805,-1.09277 a 0.99338376,0.99338376 0 0 1 0.2622,-0.0454 z m -68.313,4.00488 a 0.50179766,0.50179766 0 0 1 0.1348,0.0161 l 1.7812,0.47022 a 3.4798914,3.4798914 0 0 0 1.563,0.0483 l 1.8076,-0.35889 a 0.50179766,0.50179766 0 0 1 0.583,0.61963 l -0.4687,1.78125 a 3.4798914,3.4798914 0 0 0 -0.048,1.56445 l 0.3588,1.80615 a 0.50180047,0.50180047 0 0 1 -0.6196,0.58301 l -1.7827,-0.46875 a 3.4799715,3.4799715 0 0 0 -1.563,-0.0483 l -1.8076,0.35889 a 0.50180047,0.50180047 0 0 1 -0.583,-0.61963 l 0.4687,-1.78125 a 3.4798914,3.4798914 0 0 0 0.048,-1.56445 l -0.3589,-1.80762 a 0.50179766,0.50179766 0 0 1 0.4863,-0.59912 z m -56.2368,3.0293 a 1.279719,1.279719 0 0 1 1.0034,0.59033 l 2.5254,3.9624 a 8.874659,8.874659 0 0 0 2.8447,2.79639 l 4.0064,2.45654 a 1.2797262,1.2797262 0 0 1 0.019,2.16943 l -3.9638,2.52539 a 8.8748628,8.8748628 0 0 0 -2.7964,2.84473 l -2.4566,4.00635 a 1.2797262,1.2797262 0 0 1 -2.1694,0.019 l -2.5254,-3.96387 a 8.874659,8.874659 0 0 0 -2.8447,-2.79638 l -4.0064,-2.45655 a 1.279719,1.279719 0 0 1 -0.018,-2.16943 l 3.9624,-2.52539 a 8.874659,8.874659 0 0 0 2.7963,-2.84473 l 2.4566,-4.00634 a 1.279719,1.279719 0 0 1 1.166,-0.60791 z m 316.4575,6.13037 a 0.7939557,0.7939557 0 0 1 0.5845,0.22265 l 2.0903,2.03321 a 5.5059634,5.5059634 0 0 0 2.1167,1.28173 l 2.7686,0.91114 a 0.7939557,0.7939557 0 0 1 0.3222,1.3081 l -2.0332,2.08887 a 5.5059634,5.5059634 0 0 0 -1.2817,2.11816 l -0.9111,2.76856 a 0.79396012,0.79396012 0 0 1 -1.3067,0.3208 l -2.0903,-2.03174 a 5.5060902,5.5060902 0 0 0 -2.1182,-1.28174 l -2.7685,-0.91113 a 0.79396012,0.79396012 0 0 1 -0.3208,-1.30811 l 2.0317,-2.09033 a 5.5059634,5.5059634 0 0 0 1.2818,-2.1167 l 0.9111,-2.76855 a 0.7939557,0.7939557 0 0 1 0.7236,-0.54492 z m -221.1841,15.88916 a 0.58487391,0.58487391 0 0 1 0.1553,0.0278 l 2.0449,0.65185 a 4.0560127,4.0560127 0 0 0 1.8179,0.14942 l 2.1255,-0.30908 a 0.58487391,0.58487391 0 0 1 0.6401,0.75586 l -0.6518,2.04638 a 4.0560127,4.0560127 0 0 0 -0.1494,1.81787 l 0.309,2.12403 a 0.58487718,0.58487718 0 0 1 -0.7558,0.6416 l -2.0464,-0.65186 A 4.056106,4.056106 0 0 0 1254,407.12842 l -2.1255,0.30908 a 0.58487718,0.58487718 0 0 1 -0.6416,-0.75586 l 0.6519,-2.04639 a 4.0560127,4.0560127 0 0 0 0.1508,-1.81787 l -0.3105,-2.12402 a 0.58487391,0.58487391 0 0 1 0.602,-0.66943 z m -52.3989,2.87402 a 1.8551357,1.8551357 0 0 1 0.4951,0.063 l 6.5845,1.74316 a 12.865087,12.865087 0 0 0 5.7803,0.1875 l 6.6826,-1.31543 a 1.855146,1.855146 0 0 1 2.1518,2.29395 l -1.7431,6.58447 a 12.865383,12.865383 0 0 0 -0.1875,5.78027 l 1.3154,6.68409 a 1.855146,1.855146 0 0 1 -2.2939,2.15185 l -6.5845,-1.74463 a 12.865087,12.865087 0 0 0 -5.7803,-0.1875 l -6.6841,1.3169 a 1.8551357,1.8551357 0 0 1 -2.1518,-2.29541 l 1.7446,-6.58448 a 12.865087,12.865087 0 0 0 0.1875,-5.78027 l -1.3169,-6.68262 a 1.8551357,1.8551357 0 0 1 1.8003,-2.21484 z m -24.9477,13.8501 a 0.62552772,0.62552772 0 0 1 0.5053,0.2622 l 1.3374,1.86622 a 4.3379408,4.3379408 0 0 0 1.4634,1.29052 l 2.02,1.09278 a 0.62552772,0.62552772 0 0 1 0.067,1.05761 l -1.8677,1.33741 a 4.3379408,4.3379408 0 0 0 -1.289,1.46338 l -1.0928,2.02001 a 0.62553123,0.62553123 0 0 1 -1.0591,0.0659 l -1.3374,-1.86621 a 4.3380407,4.3380407 0 0 0 -1.4634,-1.29053 l -2.02,-1.09277 a 0.62553123,0.62553123 0 0 1 -0.066,-1.05762 l 1.8662,-1.3374 a 4.3379408,4.3379408 0 0 0 1.2905,-1.46338 l 1.0928,-2.02002 a 0.62552772,0.62552772 0 0 1 0.5523,-0.32812 z m 129.8627,0.91699 a 0.5832822,0.5832822 0 0 1 0.3033,0.0688 l 1.8882,1.01074 a 4.0449744,4.0449744 0 0 0 1.7548,0.47607 l 2.1402,0.0835 a 0.5832822,0.5832822 0 0 1 0.4922,0.8584 l -1.0122,1.88672 a 4.0449744,4.0449744 0 0 0 -0.4761,1.75488 l -0.083,2.14014 a 0.58328547,0.58328547 0 0 1 -0.8584,0.49218 l -1.8867,-1.0122 a 4.0450675,4.0450675 0 0 0 -1.7549,-0.47608 l -2.1402,-0.082 a 0.58328547,0.58328547 0 0 1 -0.4921,-0.8584 l 1.0122,-1.88818 a 4.0449744,4.0449744 0 0 0 0.476,-1.75488 l 0.082,-2.14014 a 0.5832822,0.5832822 0 0 1 0.5551,-0.55957 z m -37.9833,8.77881 a 0.99338376,0.99338376 0 0 1 1.0166,1.14111 l -0.5406,3.60645 a 6.8889673,6.8889673 0 0 0 0.2403,3.08789 l 1.0942,3.479 a 0.99338937,0.99338937 0 0 1 -1.0942,1.28028 l -3.608,-0.54053 a 6.8891256,6.8891256 0 0 0 -3.0878,0.24023 l -3.479,1.09424 a 0.99338937,0.99338937 0 0 1 -1.2803,-1.0957 l 0.5405,-3.60645 a 6.8889673,6.8889673 0 0 0 -0.2402,-3.08789 l -1.0943,-3.479 a 0.99338376,0.99338376 0 0 1 1.0957,-1.28028 l 3.6065,0.54053 a 6.8889673,6.8889673 0 0 0 3.0879,-0.24023 l 3.4804,-1.09424 a 0.99338376,0.99338376 0 0 1 0.2623,-0.0454 z m 117.9272,10.0664 a 0.40580697,0.40580697 0 0 1 0.3882,0.38672 l 0.067,1.48828 a 2.8142103,2.8142103 0 0 0 0.3398,1.21875 l 0.7119,1.30811 a 0.40580697,0.40580697 0 0 1 -0.3384,0.60059 l -1.4882,0.0674 a 2.8142103,2.8142103 0 0 0 -1.2188,0.33984 l -1.3081,0.71192 a 0.40580924,0.40580924 0 0 1 -0.5991,-0.33838 l -0.067,-1.48828 a 2.8142752,2.8142752 0 0 0 -0.3398,-1.21875 l -0.712,-1.30811 a 0.40580924,0.40580924 0 0 1 0.337,-0.59912 l 1.4882,-0.0674 a 2.8142103,2.8142103 0 0 0 1.2188,-0.33985 l 1.3096,-0.71338 a 0.40580697,0.40580697 0 0 1 0.2109,-0.0483 z m -180.3472,23.1709 a 0.51609595,0.51609595 0 0 1 0.2696,0.0557 l 1.6845,0.86865 a 3.5790478,3.5790478 0 0 0 1.5586,0.39697 l 1.8941,0.0439 a 0.51609595,0.51609595 0 0 1 0.4482,0.75146 l -0.8686,1.68457 a 3.5790478,3.5790478 0 0 0 -0.397,1.5586 l -0.044,1.8955 a 0.51609884,0.51609884 0 0 1 -0.7529,0.44678 l -1.6831,-0.86865 a 3.5791303,3.5791303 0 0 0 -1.5601,-0.39697 l -1.894,-0.0439 a 0.51609884,0.51609884 0 0 1 -0.4468,-0.75146 l 0.8687,-1.68457 a 3.5790478,3.5790478 0 0 0 0.397,-1.5586 l 0.042,-1.89551 a 0.51609595,0.51609595 0 0 1 0.4834,-0.50244 z m 49.8897,1.55127 a 0.51609593,0.51609593 0 0 1 0.5156,0.38672 l 0.4775,1.83399 a 3.5790478,3.5790478 0 0 0 0.7456,1.42529 l 1.2334,1.43848 a 0.51609593,0.51609593 0 0 1 -0.2622,0.83642 l -1.8339,0.47754 a 3.5790478,3.5790478 0 0 0 -1.4253,0.74414 l -1.44,1.2334 a 0.51609883,0.51609883 0 0 1 -0.8349,-0.26221 l -0.4776,-1.83398 a 3.5791302,3.5791302 0 0 0 -0.7456,-1.42529 l -1.2319,-1.43995 a 0.51609883,0.51609883 0 0 1 0.2607,-0.83496 l 1.834,-0.47754 a 3.5790478,3.5790478 0 0 0 1.4268,-0.7456 l 1.4384,-1.23194 a 0.51609593,0.51609593 0 0 1 0.3194,-0.12451 z m 151.497,2.19434 a 0.7424325,0.7424325 0 0 1 0.7442,0.77637 l -0.1216,2.72314 a 5.148658,5.148658 0 0 0 0.4175,2.27637 l 1.0825,2.50049 a 0.74243665,0.74243665 0 0 1 -0.7148,1.03711 l -2.7232,-0.12305 a 5.1487765,5.1487765 0 0 0 -2.2763,0.41894 l -2.502,1.08252 a 0.74243665,0.74243665 0 0 1 -1.0356,-0.71484 l 0.1215,-2.72314 a 5.148658,5.148658 0 0 0 -0.4174,-2.27637 l -1.0826,-2.50196 a 0.7424325,0.7424325 0 0 1 0.7149,-1.03564 l 2.7231,0.12158 a 5.148658,5.148658 0 0 0 2.2764,-0.41748 l 2.5019,-1.08252 a 0.7424325,0.7424325 0 0 1 0.2915,-0.0615 z m 20.9166,0.58154 a 0.4207572,0.4207572 0 0 1 0.1113,0.0161 l 1.4839,0.43066 a 2.9178716,2.9178716 0 0 0 1.3095,0.0732 l 1.522,-0.26221 a 0.42075484,0.42075484 0 0 1 0.4761,0.53174 l -0.4307,1.48389 a 2.9178716,2.9178716 0 0 0 -0.073,1.30957 l 0.2622,1.52197 a 0.42075484,0.42075484 0 0 1 -0.5318,0.47608 l -1.4838,-0.43067 a 2.9178716,2.9178716 0 0 0 -1.3096,-0.0732 l -1.522,0.26221 a 0.4207572,0.4207572 0 0 1 -0.4761,-0.53174 l 0.4307,-1.48389 a 2.9179387,2.9179387 0 0 0 0.073,-1.30957 l -0.2622,-1.52197 a 0.4207572,0.4207572 0 0 1 0.4205,-0.49219 z m -102.23,0.67969 a 0.57411526,0.57411526 0 0 1 0.5097,0.29736 l 1.0122,1.8501 a 3.9814031,3.9814031 0 0 0 1.191,1.33594 l 1.7197,1.21875 a 0.57411526,0.57411526 0 0 1 -0.057,0.97265 l -1.8487,1.01221 a 3.9814031,3.9814031 0 0 0 -1.3359,1.18945 l -1.2188,1.71973 a 0.57411848,0.57411848 0 0 1 -0.9726,-0.0557 l -1.0122,-1.84864 a 3.9814947,3.9814947 0 0 0 -1.1909,-1.3374 l -1.7198,-1.21875 a 0.57411848,0.57411848 0 0 1 0.057,-0.97119 l 1.8486,-1.01221 a 3.9814031,3.9814031 0 0 0 1.3359,-1.19091 l 1.2188,-1.71973 a 0.57411526,0.57411526 0 0 1 0.4629,-0.2417 z m 37.8852,1.80176 a 0.82951039,0.82951039 0 0 1 0.7808,0.80713 l 0.083,3.04394 a 5.75253,5.75253 0 0 0 0.6489,2.50342 l 1.4092,2.69971 a 0.82951507,0.82951507 0 0 1 -0.7134,1.21289 l -3.0454,0.0835 a 5.7526624,5.7526624 0 0 0 -2.502,0.64893 l -2.7011,1.40918 a 0.82951507,0.82951507 0 0 1 -1.2129,-0.71338 l -0.082,-3.04395 a 5.75253,5.75253 0 0 0 -0.6504,-2.50341 l -1.4078,-2.69971 a 0.82951039,0.82951039 0 0 1 0.712,-1.21289 l 3.0454,-0.0835 a 5.75253,5.75253 0 0 0 2.5019,-0.65039 l 2.7012,-1.40771 a 0.82951039,0.82951039 0 0 1 0.3208,-0.0923 0.82951039,0.82951039 0 0 1 0.1113,-0.001 z m -83.3027,3.68115 a 1.0375009,1.0375009 0 0 1 0.8203,0.46875 l 2.0815,3.18896 a 7.194913,7.194913 0 0 0 2.3321,2.24268 l 3.2695,1.9541 a 1.0375067,1.0375067 0 0 1 0.035,1.75928 l -3.1905,2.08301 a 7.1950785,7.1950785 0 0 0 -2.2412,2.33203 l -1.9555,3.26953 a 1.0375067,1.0375067 0 0 1 -1.7593,0.0337 l -2.083,-3.18896 a 7.194913,7.194913 0 0 0 -2.3306,-2.24121 l -3.2695,-1.95557 a 1.0375009,1.0375009 0 0 1 -0.035,-1.75928 l 3.1904,-2.08301 a 7.194913,7.194913 0 0 0 2.2413,-2.33203 l 1.9555,-3.26806 a 1.0375009,1.0375009 0 0 1 0.939,-0.50391 z m 102.5757,8.56787 a 0.4207572,0.4207572 0 0 1 0.1113,0.0176 l 1.4839,0.43066 a 2.9178716,2.9178716 0 0 0 1.3096,0.0733 l 1.5219,-0.26368 a 0.42075484,0.42075484 0 0 1 0.4761,0.53321 l -0.4307,1.48242 a 2.9178716,2.9178716 0 0 0 -0.073,1.30957 l 0.2622,1.52344 a 0.42075484,0.42075484 0 0 1 -0.5317,0.47461 l -1.4839,-0.43067 a 2.9178716,2.9178716 0 0 0 -1.3096,-0.0732 l -1.522,0.26367 a 0.4207572,0.4207572 0 0 1 -0.476,-0.53174 l 0.4306,-1.48388 a 2.9179387,2.9179387 0 0 0 0.073,-1.30957 l -0.2622,-1.52344 a 0.4207572,0.4207572 0 0 1 0.4204,-0.49219 z m -133.5147,15.81006 a 0.51609594,0.51609594 0 0 1 0.4175,0.21533 l 1.103,1.54102 a 3.5790478,3.5790478 0 0 0 1.2071,1.06347 l 1.667,0.90088 a 0.51609594,0.51609594 0 0 1 0.056,0.87451 l -1.541,1.10303 a 3.5790478,3.5790478 0 0 0 -1.0635,1.20703 l -0.9023,1.66699 a 0.51609884,0.51609884 0 0 1 -0.8731,0.0542 l -1.1045,-1.53955 a 3.5791302,3.5791302 0 0 0 -1.2055,-1.06494 l -1.667,-0.90088 a 0.51609884,0.51609884 0 0 1 -0.056,-0.87451 l 1.541,-1.10303 a 3.5790478,3.5790478 0 0 0 1.0635,-1.20703 l 0.9024,-1.66699 a 0.51609594,0.51609594 0 0 1 0.4555,-0.26953 z m 188.2793,3.18896 a 0.4207572,0.4207572 0 0 1 0.1114,0.0176 l 1.4838,0.43067 a 2.9178716,2.9178716 0 0 0 1.3096,0.0732 l 1.522,-0.26367 a 0.42075484,0.42075484 0 0 1 0.4761,0.53173 l -0.4307,1.48389 a 2.9178716,2.9178716 0 0 0 -0.073,1.30957 l 0.2623,1.52344 a 0.42075484,0.42075484 0 0 1 -0.5318,0.47461 l -1.4839,-0.43067 a 2.9178716,2.9178716 0 0 0 -1.3095,-0.0732 l -1.522,0.26367 a 0.4207572,0.4207572 0 0 1 -0.4761,-0.5332 l 0.4307,-1.48242 a 2.9179387,2.9179387 0 0 0 0.073,-1.30957 l -0.2622,-1.52344 a 0.4207572,0.4207572 0 0 1 0.4204,-0.49219 z m -28.2304,1.95704 a 1.4375855,1.4375855 0 0 1 1.4443,1.29931 l 0.5039,5.2544 a 9.9694396,9.9694396 0 0 0 1.4194,4.25097 l 2.7554,4.50293 a 1.4375936,1.4375936 0 0 1 -1.0884,2.18115 l -5.2544,0.50391 a 9.9696691,9.9696691 0 0 0 -4.2509,1.41943 l -4.503,2.75538 a 1.4375936,1.4375936 0 0 1 -2.1811,-1.08838 l -0.5039,-5.2544 a 9.9694396,9.9694396 0 0 0 -1.4195,-4.25097 l -2.7553,-4.50293 a 1.4375855,1.4375855 0 0 1 1.0883,-2.18116 l 5.2544,-0.5039 a 9.9694396,9.9694396 0 0 0 4.251,-1.41944 l 4.5029,-2.75537 a 1.4375855,1.4375855 0 0 1 0.7369,-0.21093 z m -102.1158,7.28027 a 1.0648158,1.0648158 0 0 1 0.8409,0.48193 l 2.1372,3.27393 a 7.3843376,7.3843376 0 0 0 2.3935,2.2998 l 3.356,2.00684 a 1.0648218,1.0648218 0 0 1 0.035,1.80469 l -3.2739,2.13867 a 7.3845077,7.3845077 0 0 0 -2.2998,2.39209 l -2.0068,3.35596 a 1.0648218,1.0648218 0 0 1 -1.8062,0.0351 l -2.1372,-3.27392 a 7.3843376,7.3843376 0 0 0 -2.3936,-2.29981 l -3.3544,-2.00684 a 1.0648158,1.0648158 0 0 1 -0.037,-1.80615 l 3.274,-2.1372 a 7.3843376,7.3843376 0 0 0 2.3012,-2.39209 l 2.0069,-3.35596 a 1.0648158,1.0648158 0 0 1 0.9638,-0.51709 z m 67.7564,5.9707 a 0.4207572,0.4207572 0 0 1 0.1128,0.0161 l 1.4824,0.43066 a 2.9178716,2.9178716 0 0 0 1.3096,0.0732 l 1.5234,-0.26221 a 0.42075484,0.42075484 0 0 1 0.4746,0.53174 l -0.4307,1.48389 a 2.9178716,2.9178716 0 0 0 -0.073,1.30957 l 0.2637,1.52197 a 0.42075484,0.42075484 0 0 1 -0.5332,0.47608 l -1.4824,-0.43067 a 2.9178716,2.9178716 0 0 0 -1.3096,-0.0732 l -1.5235,0.26221 a 0.4207572,0.4207572 0 0 1 -0.4746,-0.53174 l 0.4307,-1.48389 a 2.9179387,2.9179387 0 0 0 0.073,-1.30957 l -0.2636,-1.52197 a 0.4207572,0.4207572 0 0 1 0.4204,-0.49219 z" /></g></svg>
